<mxfile host="app.diagrams.net" agent="Mozilla/5.0 (Windows NT 10.0; Win64; x64) AppleWebKit/537.36 (KHTML, like Gecko) Chrome/134.0.0.0 Safari/537.36" version="26.1.1">
  <diagram name="PÃ¡gina-1" id="p3oRgVv4D34xODSicg4z">
    <mxGraphModel dx="1600" dy="775" grid="1" gridSize="10" guides="1" tooltips="1" connect="1" arrows="1" fold="1" page="1" pageScale="1" pageWidth="827" pageHeight="1169" math="0" shadow="0">
      <root>
        <mxCell id="0" />
        <mxCell id="1" parent="0" />
        <mxCell id="Rllp9C1GU7QNVUocK1dj-1" value="" style="shape=image;verticalLabelPosition=bottom;labelBackgroundColor=default;verticalAlign=top;aspect=fixed;imageAspect=0;image=data:image/png,iVBORw0KGgoAAAANSUhEUgAAAr4AAABwCAYAAAD4+nOYAAAAAXNSR0IArs4c6QAAAARnQU1BAACxjwv8YQUAAAAJcEhZcwAADsMAAA7DAcdvqGQAAJ9qSURBVHhe7J0JXFRl24f/A8yKwICBuLGp4E4o4oLgkiYluZVluOCr5mdmppVb5ZYoZma5YIomlWi54JZbRW6US1iggFuoSIqKiiKLbDP398wCMwPDnBnAsjrX+5tez/ac+7n3c+YcRkAM8PDw8PDw8PDw8PzLsdL+Pw8PDw8PDw8PD8+/Gr7x5eHh4eHh4eHh+U/AN748PDw8PDw8PDz/CfjGl4eHh4eHh4eH5z8B3/jy8PDw8PDw8PD8J+AbXx4eHh4eHh4env8E1TS+SuSc2Y8t33yDb/Q+Ww9fQqF2j9qguLYHke9+iLh0hXaNjpLfYjDj3VU49kC7oo7JTYjCtA+3a5c4yP8Fn0+bi2/Pl2lX1BDFVexeNA3LD9/TrrAMi2TmpBiZKedxT6ld/LspPIG102Zjc1otdfwvoG7tXLcUnliLabM3a5d4/gpq5w91F+fltq9piCqu7saiactxuIbC6OvBwA/rKj/XFSW/YcP0qZgyZYrxz9Tp2PBbiXbnuiAfv3w+DXO/PQ/jGijEibXTMHtzmnZZh7oGv8Nq0qFsVu1rSG4CoqZ9iO2XqtbxWmNxXXjC6tpjhcvuTxoKXN21EO9MX4kjdywx0OOzaTWN7yMc+mgEwsLCDD4jF3yP+3UghOLmz/h65Zc48mdVs5Vd3Iuoldvx+8PH4cFK5CfHISrmsHbZNMqCs9ixah3ir9bSvRRZOPZVFLadrkk3b5nMpmEO+Pkg+I/ajMwnJUGUZOLXAz/gzO3HkDz/UdSlneueksxfceCHM9olnsdPbfyhbuP8UeourIr+AZdrmAYVWcfwVdQ2nH5Qkz8Zb6gHfT+ss/xcZxQjL+ce7t1Tfe7i4o8xWPXVT/jjbvm6HOQVa3etC5QFOLtjFdbFX62mASpB5q8H8MOZ29rlcopwfPl0RP4E+HZ0qfHXvsr8ZMRFxeDw9cegf4vqwhNY1x4nnHZ/wihMwKfTl+CItR86OpvrbY/XpsalKEtHyvki+L73C25lZyNb+8na+Roa1jRKeJ4ACPnZd5D/JCUH+Sv4IvUUPuot1q7geRKRv/IFUk99pF3iebJ5AuO8jnii/VDUDW+t/xobN25knw2Y1ccZ1i7P4r0NqmX2+Xo93uom0u78VyDHK1+k4tRHvbXLWhTXke04DGs3RaCng3bdk4ZFdeHf6+//BhR/3kH94WsRO7877LTruHm8NjXexhakIOWqIzp064AGzs5w1n7qO0hqfHVYI3J34s2gEVi6aTGGPu0KmVAMJ58QzNyTya4HTFCWif0LXkGAuxxioRTObV7AB3urHqPM3oIJgQPwUaLu66eys59iSOBYfP1nucYJOb9EINTHESKRPTy6j0N0Up52WzUUpmLj5Gfg7SSByKEZ+sz6Edn6NzuUt3FkSRgCmtpDZCOBc8t+mPrNeXYdbh7K20ewJCwATe1FsJE4o2W/qfiGXaiUU5a5HwteCYC7XAyh1BltXvgAezNLkRU7AaPWXUBxegxGBIZjw5Wb2DIhEAM+SkSFBsrO4tMhgRj79Z/qxZztExEUNguzX2wFJ1sn+E0/zPR2FJ+E94CPiy2E1jaQ1PdG7zdicb66uxm5p7AqPBAtnG2ZDh3g5j8UEfG3oNawysbd+mLeMZUEudj5ZhBGLN2ExUOfhqtMCLGTD0Jm7kFmNQbPPbUK4YEt4GwrYrp2g//QCMTfUo2sRPaWCQgc8BF05i3D2U+HIHDs19rl6nTFTqbM5tBNDrZPDELYrNl4sZUTbJ38MP1woQl5GGzMo5+Eo4ePC2yF1sx29eHd+w3EVqM403bOxalV4Qhs4QxbkQgObv4YGhGP8lNVpRCpX09C7xaOkIjlaP7sTGxcMR5Bal1w6yp355vo1nee+t8qTMtmXDdcflsFk3Fcgqt75mCwXyPUE9pA6tIKIVM345z2WSyVvEEjlmLT4qF42lUGodgJPiEzsUfPkUqu7sGcwX5oVE8IG6kLWoVMxebyARjV+oYKjhg2FjdVqFUeqM7+yqpxnsFkLrmKPXMGw69RPQhtpHBpFYKpm8/pHl0zM2eq9J6+aQJ6dxuChQk52nWGFKZuxORnvOEkYXI164NZP2azLKpHLeZd2Q9N52fjfshld5MxXCtYnB39BOE9fOBiK4Q1m3t97954I/Y81BlAW+8Wx8zDoDZPQSKyRZOur7MYSUXs60Fwt2PyOHqj/8JjBt+8Us4viAj1gSPzA3uP7hgXnQSNBlT5tBv6zjumXlKd//aRJQjr2gv/WxCB//X0Rb+p30CXUmpYb8vhsKtFetWvCyblqsbfTcpi3C9qJb+FuZ2NZjJ/m1Njq7e7Cq2tA5rCXsSOd25pYGuz8hOrAZn7F+CVAHfIxUJIndvghQ/2qmuxOb1T+RxaB41GxIcj4NdQfw6man11NuXQsak+ozKqnyyuTPHxadRS0oZeejOMej3tQ97tgunVObsovUi7Qy0pPsHGF3nSpENVByzYNIRsRT3o02sKorvRFCKRUD3PZ2jWxiOUeHIPRYQ0ImHD0bQ7T3tAFYopaUEA1XPwo3FrfqTE04coekw7spX3o6grJXR9RS+SekxU76m4voJ6ST1o4k86OYp/fpu8pYG0JL2MFLdWUx+RgKwd/Wniung6cWwzzerVgIQe42hvjvaAKuTTobe8SfxUd3rn6yN04kgszejpSjYCIQUuSWfbSyllSTDJHTvS+NX76WTScdqxcCB5yprThP33NUMYoDCQmUpTaEmwnBw7jqfV+09S0vEdtHCgJ8maTyD14cVJtCCgHjn4jaM1PybS6UPRNKadLcn7RVFK0i6KGOxBwqYDaW70Lkq+d51W9JKSx8SfqEIDxT/T295SrawKurW6D4msZOQ7fiMlJGyjrccu0NYwV5K0GEYrDiZSSspJ2vPxYPIQymnwxnuaMQwopV/fY/pvGU7Rh5Io9feD9MlgNxI1GUf789lmtY1dKHz3I9UCRYdISFLPk56ZtZGOJLKxI0KokbAhjTZm8NJf6T02t5bh0XQoKZV+P/gJDXYTUZNx+5kVdHrTmbeYfn7bm6SBS7SL1evqSgmHbhS3aHUfEVnJfGn8xgRK2LaVjmWdNCEPm93WMHKVtKBhKw5SYkoKndzzMQ32EJJ88Ea6Z6GdS399j9rZtqTw6EOUlPo7HfxkMLmJmtA4tVKrkn94CvmInajL5Bg6fOIwfTk1kBrbSkik1gW3ru5Gh5DEJVz9b04fNKqbM6aPqYKpOC6jgoQZ1E7mQE+PXUn7jp+k+A1TKdBZRB5jdlG2OnUweSX1yPOZWbTxSCLTdQSFNBJSw9G7NcMXJNCMdjJyeHosrdx3nE7Gb6Cpgc4k8hhDu1QDmPKNMq4YNhY32ZrzVsA9hoE/VMKU/fPOVorz+wWUMKMdyRyeprEr99Hxk/G0gdnfWeRBY3ZlszOZ1nW57Xc/KqY/vg6j5rZuNOjzFFJFbBXyD9Fb3mJ6qvs79PWRE3Qkdgb1dLUhgVCTU7nnXRlDPej7IWd+NuaHGUdN291kTrGEYjo6uRmJvN+mn4u1q+5upTBXCbUYtoIOJqZQCqtnH6vsJB9M6tSpyoViIUnd+9G8uOOUdGw1DXUXkn19N+r02lqK//UkxU3vRnJJV1p8gelSOz+BtSP5T1xH8SeO0eZZvaiB0IPGqRWgyacu4RqfL01ZQsFyR+o4fjXtP5lEx3cspIGeMmo+YT+pNW9hvTWsnxx2tVSv+nWBQ66q/s4hizG/yC6ulfymc3tVTOfvu6ZrLKfduWxtTn5SpcAFFFDPgfzGraEfE0/ToegxTGY59Yu6wtk7cc6Bo9ZXtSmXjjn6jEoYbXyzo58jqZUdtRk6h9Zu3kzR84ZROwcRef5vB91iuaG2WNT4ikUUvOwqM5WG4iOTqZmkE0WcUynXCMVHaHIzMbV//zRLPVryf6KI4WNp1alCgyRqVuMrllD3jy9S+dkUN9bSc/bMeF8bc2dGXhyNcJZS8CfplY4RaRqmonh63V1CXSIvVGxXOUHsi05kPyCGqrqfYeIvin+d3CVdKFKV+Mq5G0svOtnTgJhsjX7E7en90xWzZ9OPoOFjV9GpolI6O68jSdt/QL+Xsg0K8xpfsaQPRd3QWkBxm05tXk4xR1UFU0vxMZrSQkKdIs7pzamcRxQX5kR2QRH0+wPNEWUZP9DaqN2Uqkqm+glOHQxiEgUvo6s6gzN7asauwqM4CnOyo6CI30kzdBll/LCWonanUp6e3qpr5kzqqtCcxldMkj5RVK4aLnlun9pMy2OOqhszDcV0bEoLknSKoHNlltn5UVwYOdkFUcTvDzR2KMugH9ZG0W61UiuTTztGOpOkayRVDKe4Rp/3s6tR48slmzHdcB5TGZNxfJe2vVqfpGw+5yuGU1DWhgEkl/WmlSx3qOQVi4Jpmc6R6AhrRFS6VpG37VWqL+1KkboBSJG1gQbIZdR75TV6ZMo3crli2EjcVIYzDxj6Q2VM279SnOdto1frS6lr5HnduRRZtGGAnGS9V9K1R6Z0XaS1fRgtjx5GzWybVt/0MvLiRpCzNJg+URc/FQq6sfY5shdpC2It81+VxtdUfjbih1x2V5iMYUuo2vgqbp+izctj6KguAbDUOYValNczbb1T5ReNdEX04wQ3ErpPoB+1CldkraJnJA1p7F62onx+3T+mizoF0Nrn7Fkz8DVrBvQb3yKKf92dJF30cgDjbuyL5GQ/gNQhaGG9NaifXHa1VK/6dYFTrkr+ziWLsdxdK/m5crt2lR4m45erxnLancvWZuQnbb4Ut3+fdCkwn36KGE5jV53ibnw5+wSuWl/Jppw65ugzKmH0yQXZMzMQs3kfvv9mPsa/+ipem7sJexb1xL1vPsOma2Z96WEagQACKKE09q6DqhlnW9kuGgRyeDV3rXjEwkouh52gDCUlxl+UUOak4dwNB3QIaIOKp6lse+P92PV4I6AGz5Fau6NLoAestYtWLp3RqVkRzqdc0n0FrkdZRirO5zWGn39TvWO6oUsLG/W/FVnJSLlZhgtrhsC3bVu0VX96YF5CIR5dSkO6sUErUCArOQU3yy5gzRBf7bHs02MeEgof4VLaJdxKO4cbDh0Q0KZi9mz67yN2/RuoyfRVCBzd4e6ktYCVCwJeGQn/3DhEzpiIUUP6wL/1QESlK6BUKg2/0lQjQa9RI+H222z4N2oC374jMXNnHgKG9kebetpdDBBA7tUcrjqDQ24nQFmJEcVIemHUSDf8NtsfjZr4ou/ImdiZF4Ch/dvA6NAGKJFTa10J4OjujnLVmJbHCi4Br2Ckfy7iImdg4qgh6OPfGgOj0qFgejOMBS47p8Oq1yiMdPsNs/0boYlvX4ycuRN5AUPR35hSFdeQduEhXDt0hkeFUzZGcPeW0HilJXDLprGUvm7MPUaHyTjucAMpFwrQtGsQvMrno9JvcCBaKy7i7LlS9RqB3AvNdY4EudwOgjLVmcpwJeUCCpp2RZBuAObawQhsrcDFs6m4bcI3Ot4zL4YN4qYStcsDKlcz3/5lV1JwoaApugZ5VeQkVRwHB7aG4uJZpN7mzpmUE4fpE7fgqqwDBjzfmkW1McqQkXoeeY394N+0wtHg0q0LtOmv1vOuAmd+1vdDLrufQ2mtcopprFwC8MpIf+TGRWLGxFEY0scfrQdGIV3B4r88AQjs0cy7sXY+AsjqSWHT0B1NheoVsJLJIBUoUFZRhq3h3iVQL65d0LlTMxSdT8ElfV0qspCcchNlF9ZgiG+53tuix7wEFD66hLQKp7Ws3pbDaVerWurVArnM8zHD3F07+S3J7RpMxq9ZNdaE3R+ZZ2tT+YklYKSduwGHDgHQpUBb9H4/FuvfCNAum8CsOVhQ6zl1bFmfYbTu2Xr1wCte2gU1VmjSNQAetBkZ18oAT13SqAlWMimkKEDew8oeocTD3IcoE0ghs2XaUG0WWMO60unKe2KjlJaxMmsDa6HJvfSoJIPKKAarhBAJ9Z3DBjaqRcOddLCMpGD6stHXrEACiVgrT3ExS8j26Bg2DeGtDCdmZdcSzTg6keJi5hT2HRE2LRyGh1vBrmUz0AmWEW2sYfb0GYYzUTmR4RoBM4BN+XjKLGwbE4SRWx6hdXAwOrYLxugXX8CJ92fgonaXyjj2+wwnkp7Dt5visO+HQ1g/fROWLx2ENce2YUyVlysEzN7mGtwR/T47gaTnvsWmuH344dB6TN+0HEsHrcGxbaOhLtlVzKu6sNJQqqoeHLoyrRuVrDZ64pmWR7JjDIJGbsGj1sEI7tgOwaNfxAsn3scMI4rjsrONows+O5GE577dhLh9P+DQ+unYtHwpBq05xuyj1+CUQwLmk9Z6srKiyuLQYOomdKUPp2zqowx1w31MJUzGcQkULA3ZCA2PErDz2ahspNBIrfJbQz3oxirRDGB4XpZrVHGrVCpQYso3zIhhtQb046YyZoyhad+rwbGfCfu7aXfSUsIaJTZTQ3Ux+2gmC0WJGTlT4IKQxe+j4bop+ODdb/Dst8PR2EjNLFMwvVmp7KBDIJGgPP2ZM2/L4MrPhn7IZXcyGcNj9C60LEeZxfJd0EhsedQawcEd0S54NF584QTe108AAiGE2ia3AgGbg/afxhCKhCyKdNhoFFApdouhCcEwTAtvZTielR1alive0npbDqddHeFSG71aIpcZPpZcyS9qJ79luV2NqfgdLcEOM2ps9XY3w9bJKpWayE8s+2hSoNCE/Q09TJVLKsLOrD5BZQNzjapEFvMTUzo22WdUcjB9vWkpxPfv90HvKTsM/n5awdUM3IYrmjQySBk1wqZpc7hLcpGcmMqcTZ+HOH4yDdSoGVrYaldZiFV9D7jZ5yD9ot5DzWXnsf714Zi796Z2hRamdGsqQfEjnQFLbt3CXf2noRU3cOmPfO0CIy8FKRk28PQ2UqwZNu4t4Cm+iXNpObrzF1/EJdUFA8O6oSfcZAUodOiKsJEjMVL9GY5+fs3g07657u6hUazR0NMNsoJCOHQN0x7LPsP7wa+ZD9o3fwrOHm6wz0nHRb2XBsrOr8frw+di702l7k66GlUyIZQUP9K5cMkt3DJQgCHK69uwestd9F6eiNPff4t1S+dgUmgDlKr+/Bxz/Coo7yHx2+XYfqsDxs6Pxq4T6bhxdhl65O9H7L5b2p1qhvJeIr5dvh23OozF/OhdOJF+A2eX9UD+/ljsY/NXBRWVFENn3hLcunVXaxcr1DepK1VQWqgbU/JkZWLb6i2423s5Ek9/j2/XLcWcSaFoUPpQ1arpfEUNl53luJ/4LZZvv4UOY+cjetcJpN84i2U98rE/dh/0pqPBuil8mstw81yanm8X4cLFK6zh0WBaV/pwyeZkJKlYfozJOD4ogaebDa6nphq85FN4NgV/oAk8PCt3DpWxgTuTx+Z6KlINB0DKH0ATj2ZwNeEbBwTutYhhDbXLA0rc47C/fpzbuLNz2VxHaup9PXsW4qxmsmjmyp0zBY69MWbi/2HRp6Mh2z0D7269acQ3mF5beEJ88xzScnRbiy9egjb91XLeRrAoP3PZ3RPWHDml5ihxfdtqbLnbG8sTT+P7b9dh6ZxJCG1QiupSp3kocOPSH9BpIA8pKRmw8fQ2vIiwbshiRoaCQgd0DSvX+0gM7+eHZj7t0dxixRvCZVf5/celVw36/l4TH6uV/BbldhWm4zcr05waa8Lu4jqwtVV9eLjZIyf9ol49KcP59a9j+Ny9TGGmeyeL+wQjGPQqyuumdWxhn2FEAxK08pAgOXoOZm69gHx2FfzgzFd464MdKHsmHC83Y51z2UUciF6L7aeNv9XLif2zGNb/KZxbHo5Rkd/iUOIZJJ84iC8/CMPbW+6j5cuvoksNv5aHrBeGDXLFyZWz8FVaHlNIHtK+moeFX/6GPAdH7U4arOTucHe8i8Nb9yCjmCXozINYsOwAcnW2ZBc1D7Av8j3syiiCMv8cYt+ej73C5zFywFPGlMcuO55nVzaOOLT4LWw4kwtF0TV898E8bGVNpxqHEIwY7IzTn76BRT/dYNdmCtw5uQyjn+2JQREJKNDsVS0OISMw2Pk0Pn1jEX66wYRW3MHJZaPxbM9BiEgoYNMfhkGuJ7Fy1ldIy2MOkZeGr+YtxJe/5cHB0RoisQiU/wAPVIXISg53d0fcPbwVezQKwMEFy3DAQAGVUN0tEZTgTkYGHrApKe79hi8mz8d3D1QXzeXvv+phJcDlXQsxafIC7M9UvX1Zhoc3/sS9Eie4udXub+lYCS5j18JJmLxgPzRDP8SNP++hxMkNbg42kLu7w/HuYWzdk6G6BkbmwQVYdiC3opE1qav6ThbrxrQ8IgjZ5XXJnQxkaBSH376YjPkaxVV5o920nR9BcHkXFk6ajAX7M9nMVKe6gT/vlcDJzQ0OVRzTDiHhQ+GS8DHeWpeEBwqmi/3zMG9LlrbxteLUlT5cPmgMi48xGcdeCB3RH7L4RZgUnYgc5suFl3dgxtxtKOgyDC/5VLqLYIT6oSPQXxaPRZOikagZADtmzMW2gi4Y9pIP7Ez5hvvztYphNbXKA1Yc9hcYxnn9UIzoL0P8okmITsxhEViIyztmYO62AnQZ9hJ87MzPmY7Pfoilw20QN20a4ow0LI7Pj8aLjoew+K0NOJOrQNG17/DBvK0oT3+1m7cRLMzPXHYXmoxhNmItap/qGwpByR1kZDxgpVqBe799gcnzv8MDpgVjqdM8CA/2ReK9XRkoUubjXOzbmL9XiOdHDsBTBgpwQMiIwXA+/SneWPQTNCF4EstGP4uegyJQTdiaD4ddH3HptVZU8vea+Fit5Lcst3PGr8icGmvK7nVhaxl6DRsE15MrMeurNOSxZjUv7SvMW/glfstz4O6dLO0TqlDJpuyi1aSOLe0ztM/6GlKWQXGTu5CL0IqEEjHZCMTUpPf7dOCm9qnivC9pgFhIHeed1SzXAMXdo7R4cCuS2whUqlJ/BOKG1G3iJjpf/ry06qF2aUMau0/3KkVp8hzyk/rRnGT1E89GUeQkUGR/D5Jai0gmFZKV1IP6f/SL+m1GwxdGiil1zRDyklqRjURGEpkHhc6eSN1t9V5uk7WgAeG9qKFYQhKVPlyD6b2DN3UPbBtBcfcIze/bhCRWQhIJhVS/SzgNbivTvjCm2n6MFoV6ka2VFYnU+pVQkz5zKP62sVEry6ygu8cWUaiXLVlZiUgitiGBpAn1mRNPmsMVlJMQSf09pGQtkpGUySz16E8f/aJ+b5ceHZ5C3mJrEtu1o3ePFVNx6hoa4iUlKxsJyZgOPEJn08TutgYvt0mbjKeD5TZR3KP4WZ3JyYbJbluPJCIn8h2+iGaGyEk+MEYrgyGl6ZtobHs5WVtLyM5eSkKhMwVM2k4Zqgfv9V9iUD/wLqWGY/fpXp4pTaY5flLym5OsXaFPKaVvGkvt5dZkLbEje2ZroXMATdqeoXlBoTiV1gzxIqmVDbMtm59HKM2e2J1stS9scenKpG7ULxhIqcn4g7qX30zKo6B78bOos5MNWYlsqZ5ERE6+w2nRzBCSywdSzO1Sy+xcmk6bxrYnubU1SezsmexCcg6YRNvVSjXGfTq+JJQ8JMyHRSIS1u9EoUGNSVKuCw5d6b9UxCmbUd1w+W1Vqo9j1cZbFD/3WXKTCpiuZSRmNmocPIXirmrygkpeacOxpEsdpZQ8x4+kfnO0y8y34+fSs25SEjC/lDF5JI2DaUrcVbanZrsp3zAdw0bixghcY5h6uY3L/pXjXHErnuY+60ZSAdtfxs4laUzBU+JIqy6Tui63vTpEVfve3EKvNhaSW/gOzQoDmJ2PzKe+TSRkJWR+JqxPXcIHU1tZ+dveXPOuDMfLbabyczV+aNruHDnF7Npn5OW2e/E0q7MT2TD/t60nIZGTLw1fNJNC5HIaGHOb6aVyvSumX971IWnXxfRHeVg/2EChUm2+VM9PRi0GhFOvhmKSSJjdhK4U/N5B0pRq/ZfbGIq7dGxRKHnZWrEcJGExIyBJkz40J56dW7Xdwnpb+QUn03bl0Gtl9OuCGXJV8XdTshj1i9rIz5Xb1do1xFT8ctXYUi67M0za2rz8xJICJUT2Jw+pNYlkrG5bScmj/0ekSYGmeyfuPoG71hva9BGnjk32GZUQqP6j7oCNUHTrHJIv3YO1a2v4etfXvfhQhxRlX0DKxVsoYFcp7q3bwdOx9o9SaChDzuVkpGUp4NLSDz7O1Utfcuciki7eh10LP7RuYOxWsxL515KQfEMIr6fbo5FMu9okRbh9/gzSC5zRpoMX5FUuahXIzTiL1Mx8iBu3QftmTpbpV5GLjLOpyMwXo3Gb9mjmVOnoshxcTk5DlsIFLf18oJs+u3LLSMKZP5Vo3L4jPFVX2yV3cDHpIu7btYBf6waaZ2NNwsa4dgZnrhVB3twXbc1RCLsqvZGWgssPrODs7YtWDYy/HlMTlPk3kJZyGQ+snOHt2wqGQ7OrzotJuHjfDi38WsOoeavVFcNi3ZiWR5l3DWfOXEORvDl82zZi19UcmLQz88sbaUi5/ABWzt7wbdWgmpeOdJSweEv6Ix8ubdsi60Nf9D01DoU/Tyvfyq0rfbh80BgWH2M6jsty0pF87jbg2hLtm9cgRzHbpyefUz/G1bJ9c9SvPIAp36htDKupzRim7G8kzlW6TE+GRl3t0bzqZM3OmZwU3cb5M+kocG6DDl5yI3df60J35dQgP3PY3XROqQXKPFw7cwbXiuRo7tvWzFrCjTL/GpKSb0Do9TTacwyqyM3A2dRM5Isbo037ZjAnbM3HtF0fm16N+ntNfKzm8luc27ni14way2X3urB1Wc5lJKdlQeHSEn4+zgb6MN071aBPMKCqTTl1bGafYbLx5eHh+bdSgl/eaVep8eXh4eHh4fl3U/VCnIeH5z+BwMoa1lYGbzvy8PDw8PD8q+Hv+PLw8PDw8PDw8Pwn4O/48vDw8PDw8PDw/CfgG18eHh4eHh4eHp7/BHzjy8PDw8PDw8PD85+Ab3x5eHh4eHh4eHj+E/wLG99CnFg7DbM3p2mXHz+Kq7uxaNpyHNb/jee/FQWu7l6EacsPa5drQG4CoqZ9iO2XVL/tZajT/F8+x7S53+K8+hdVnmSKkZly3uCntzUw/exaiHemr8SRO4/ZZgZ6rC2GdshNiMK0D7er/10Tnjy//QdQeAJrp83Ft3+r89dBfNcZuUiImoYPt1/SLqt+xSkF559In1Lg2p5IvMN8/lD23yHfY6xNdZpnKvFE+Lwhtc19BqjnNxub01Tzq+rPllFHsanMxqGVS7D76mOwZy1RXN2Fhe9Mx8ojd1BXUVSXtUhxZSciP/sRt00M9S9sfEuQ+esB/HDmtnb58aPIOoavorbh9IMn5Q9kKJB17CtEbTutXbYcZX4y4qJicPi6Khno61SJgrM7sGpdPK4+0Y0vS0CfD4L/qM3IrBwAhQn4dPoSHLH2Q0fnxxsChnqsLYZ2yE+OQ1RMzRPsk+e3/wAepWJX1DrE/63OX/v4rjOU+UiOi0LM4evqRcXVzzHIfxQ2Vwm6J4Ci41g+PRI/wRcdXf6O0vf4alPd5plKPBE+r0/tc58BJZn49cAPOHObNZmV/Nly6iI2lbgV9w4m7rCCtxv3z6//tRQi4dPpWHLEGn4dneusgayrWqTMOYZ5I8Zg3qZTuGdiqH9h4yvHK1+k4tRHvbXLPLXnn6hTQn72HeQbqb+KP++g/vC1iJ3fHXbadf8MeN/mebKh/GzcMRZ0TwCK69lwHLYWmyJ6wsiv9/8F8PH7RCJ/BV+knsJHvc35Xc6/gIIjWDj7BHrMmIBWT1rfq/gTd+oPx9rY+ej+RBXPYvx5aCle7dYfS34rYNXfNH9T41uGzP0L8EqAO+RiIaTObfDCB3uRqb2rX3J1D+YM9kOjekLYSF3QKmQqNp8r1GzM3Yk3g15F5Bdz0d/bEWKxHJ5B4xB9OlezHbnY+WY39J13TL2kzD6KT8J7wMfFFkJrG0jqe6P3G7E4X6zezHY/hVXhgWjhbAuRyAFu/kMREX/L5C38wtSNmPyMN5wkIjg064NZP2YbKFp5+wiWhAWgqb0INhJntOw3Fd+cL9JurYayTOxf8AoC3OUQC6VwbvMCPtibya4fGcpsHP0kHD18XGArtGZj1od37zcQWzGJQqRunIxnvJ0gYXNo1mcWfsw2kAjZRz9BeA8fuNgKYW0jQX3v3ngj9jxzF3Mw1KkaysEvEaHwcRRBZO+B7uOikZSn2ZSzfSKCwmZh9out4GTrBL/pqivzElzdMweD/RqhntAGUpdWCJm6GeVmrQ7TuszFqVXhCGzhDFsRs4WbP4ZGxOOWUoms2AkYte4CitNjMCIwHBsyFBW+0DpoNCI+HAG/hoa+kLvzTQSNWIpNi4fiaVcZhGIn+ITMxJ5yxzQGp20MKUz9GpN6t4CjRAx582cxc+MKjA8ai6//ZB7HxtoyIRADPkpk2tJSdhafDgnE2K//ZAtG7FABt405/ZYjVnJPrUJ4YAs42zKbO7jBf2gE4m9VEykFh/BBn24Y81WmXiyV4FRkKIJe36JdroxqfkEYsXQTFg99Gq4yIcROPgiZuaciN7DkgD1zBsOvUT0IbaRwaRWCqZvPsQgwAUeMWx6vhPsnP8JLvg0gFYnh5NMX7+7I0MQqw7QezZhjFbjj+/aRJQgLaAp7ETufc0v0m/oNNFN4gL3v9kTw1D24r95XQ/73M9G759vYc4/L5xjK2ziyJAwBTe0hYn7l3LIfpn5zHpU1pMyKxYRR63ChOB0xIwIRviGDra1Z3OtTu5hhaOXv2ut/WBDxP/T0NS5/BRz+YrI+Mcoy92PBKwFwl4shlDqjzQsfYK/auJXjl0M3NahN5dR93TPl81y5x3Kf55TfABYfX09C7xaOkLB+oPmzM7FxxXgEjf1avVWZvQUTAgfgo8QKD2Eu8imGBGp9SNVTdOuLecd02yuode3l9hdDWO36Zhk2W7+I//Wup1ml7nlGYOmmxRj6tCtkQpX+QzBzj7Y/YFh2Dq09Fsdg3qA2eIrVA9smXfE6i4nU2NcR5G7HfMIR3v0X4th9rUeU66F1EEZHfIgRfg0N9WChP3HVInNzTjnKP9cifPBnuNUvCjFveMNGu75aVD9g8VdTnLSAAuo5kN+4NfRj4mk6FD2G2tnKqV/UFaKCBJrRTkYOT4+llfuO08n4DTQ10JlEHmNoV7aC6G40hYhFJHnqaRr7+Y90/OhmmtXLlYRu/6Nd91Sj36XoEAm5hO9W/3trmCtJWgyjFQcTKSXlJO35eDB5COU0eKNq51L69b12ZNsynKIPJVHq7wfpk8FuJGoyjvbnq8YyQv4hestbTE91f4e+PnKCjsTOoJ6uNiQQBtKS9DI2ZAotCZaTY8fxtHr/SUo6voMWDvQkWfMJtP++dowqFFPSggCq5+BH49b8SImnD1H0GCaXvB9FXSmju1vDyFXSgoatOEiJKSl0cs/HNNhDSPLBG0k1i/xDb5G3+Cnq/s7XdOTEEYqd0ZNcbQQkDFyiGf7uVgpzlVCLYSvoYGIKpZzcQx8P9iChfDCp1WAExfUV1EvqQRN/KmJL+jpV0K3VfUgksCZH/4m0Lv4EHds8i3o1EJLHuL2UU77dSka+4zdSQsI22nosm5l1BrWTOdDTY1fSvuMnKX7DVAp0FpHHmF2kMqtROHRZ+ut7zG9aUnj0IUpK/Z0OfjKY3ERNaBwzXt7ZXRShmmPTgTQ3ehcl3+fyBZVrhZBEUo88n5lFG48kMj1HUEgjITUcrZq3cbhsY6DH/MM0xUdMTl0mU8zhE3T4S6aDxrYkEWl9R3GdVvSSksfEn0ildTXFP9Pb3lIKXJLOFgztcH1FL5J6TFTvxmljLr/lipXSX+m9drbUMjyaDiWl0u8HP6HBbiJqMm4/GQ+VHNryylMk7fYRXVANr6LoML3ZrB71+ozFuVE085PU86RnZm2kI4lMhogQaiRsSKN357HtBZQwox3JHFjsr9xHx0/G04apgeQs8qAxu7KZRozBEeOWxqs6/wjIukFPmh57lJJOH6ClA5uSsMEo2qUSkTPncM2xKlzxXZqyhILljtRx/GrafzKJju9YSAM9ZdR8wn66r4rHLweSoyPzg7vq3Rn3aeurLiQPXU83S7l8rpRSlgST3LEjjV+9n04mHacdCweSp6w5TVApSM9nWdDRrgjVXJvSwLnRtCv5fs3iXp9axwyH/FXg8Beu+lScRAsC6pGD3zha82MinT4UTWNY3Mj7RdGVMv34VQ1lSjeW1abK+bpO6x6Xz3PWF0t9nkt+w9yXf3gK+YidqMvkGDp84jB9yXJCY1sJibTxYagbDcU/v03eUq0PqeYncaHw3Y8M/ZlR69rL5S+VYeeP6mtHnm8c0vmzWj4J1fN8hmZtPEKJTL8RIY1I2HA0adKihedQ20NMQqk79ZsXR8eTjtHqoe4ktK9Pbp1eo7Xxv9LJuOnUTS6hrosvaI4wqQcL/YmzFlkas4yCDDp/RaUMJsustiT1X0Bp5XXHCH9D41tMRyY3I3H79+l0sXYVK50/RQynsatOUd62V6m+tCtFntdJrcjaQAPkMuq98hop1EEops6L0qh8D0XWegqV29MLX9xmIaGXXBS36dTm5RRzVK8oFh+jKS0k1CniHDv+EcWFOZFdUAT9/kCzR1nGD7Q2ajelGq9BlBc3gpylwfSJ2kAqFHRj7XNkr03ERfGvk7ukC0VWVHvG3Vh60cmeBsRka1dUovgITW4mpvbvn2ba0ZL/E0UMH0urThXS7VObaXnMUb1CUUzHprQgSacIOleWR3EjnEka/AnpRLpBa5+z1wX+7VO0eXkMHdULguJjU6iFpBNFnNOTUw+uxlcs6U4fX6ykA5bovr5Xvr0PRd0oP18ebXu1Pkm7RpLOrArK2jCA5LLetPKaTi59uHT5KC6MnOyCKOL3Bxr7lmXQD2ujaLfaeKV0dl5Hkrb/gH4vZYucvsCGZo2vWBRMy66W76HxVZWejaPgsA3bQ0+P+TtGkrOE+XbFfBR07fN+ZFcHjS+Xjbn8llM/j+IozMmOgiJ+J02olFHGD2spancqs65xHu4Kp4bijjTvrMoALDf9MIHcHUJozXWdjIZoErIoeBnpTKCKDY0MLDnQq/Wl1DXyfEXss+CnDQPkJOu9koy7kekYtzhe1flHRN0/Tq+Qofj4u+Qj8acFqkzL6Wccc6wCV3wXUfzr7iTpEqm7wGDcjX2RnOwHkHoKOVtomIucBmy4pZHp3iZ6qf5T9NIm1glz+VxRPL3uLqEukRd0OmdziH3RiewHxDC/N2wUSs/Oo47S9vSBOuhqFvf61DpmuOTXrtFh2l+46tOjI5Opmbg9va8rbiyVR9DwsavoVJF+/HLppsCi2mSQr+u67nH4PHd9sdDnOeXXz335tGOkM0mYHnUuco0+72dXB40vV37nrr2c/Yx2XQUFcTS8voyeW1dxlVqh/+BlVyv2L1b5WXlut/Qc5fZgMpbLXfTjBHITutOEH5kOVLC8uuoZCTUcu1e1wKEHy/yJsxZZHLP6mNf4/vWPOihzkHbuBhw6BKCNSLsOtuj9fizWv9EBV1IuoKBpVwR56R5usXIJRmBrBS6ePYdS1QprTwT3bI7yPaxcuiCgeQkupF6CweP3Vi4IeGUk/HPjEDljIkYN6QP/1gMRla6AUqkEQYJeo0bC7bfZ8G/UBL59R2LmzjwEDO2PNtpvGQwpQ0bqeeQ19oN/04qzw6VbF7RQ31tXICs5BTfLLmDNEF+0bdtW8+kxDwmFj3ApLV33dZweypw0nLvhgA4BbaBTSW+8H7sebwRI4RLwCkb65yIucgYmjhqCPv6tMTAqHQo2B2VpBlLP56Gxnz90IrmgW5cWFbf7rVwC8MpIf+TGRWLGxFEY0scfrQdGIV3Bjlcafi1jLtbuXRDooaeDzp3QrOg8Ui5pZihwdIe7k9a9yq4g5UIBmnYNgs6s7JjgQLRWXMTZc2qrVoJbl1a9RmGk22+Y7d8ITXz7YuTMncgLGIr+xozH6QsaBHIvNHctDwsryOV2EJQZs5oKNgdTtjFQrQLX0i7goWsHdNbTW+Pg7mjJ+b0MN6ZtXMrht6pFDv1IemHUSDf8NtsfjZr4ou/ImdiZF4Ch/dvAaKgw7PoOQ6hLCrZ/k8QipwBHtuzFw56vYFBDU2lHALlXc+hMIIfcToCykhLmRim4UNAUXYO8KmJfJXdwYGsoLp6FUTcyGeM1i1fmJGjm3ViXf+ztUU9QjKJHzOBm+Vn1c6xCGUd8K7KQnHITZRfWYIivVn726TEvAYWPLiEtnY3p+DzC+tvi6PbvcJvJkP3dVvwkeo6tq68ezhSKrGSk3CzDhTVD4Fuun7Y9MC+hEI8upUE1fLXUKO71qX3MWC6/KX8p46hPqbiddg43HDogQFfcWCp/H7Hr30CA/iOknLqxtrA26cHpg5bWPYYJnzevvljg82bFkBbFNaRdeAjXDp2hc5HGCO7ekvvrbk448jtn7eXyF20/o4fybiau59vD1dVWu0YL079Xc1cmkQYruRx2gjKUlJRafA4NAtg380Zj7SECWT1IbRrCvalQs8JKBplUAEWZ6mEKrjpniT9x9VC1zDlmYqoCPSZKodKljbWQqb4qJQrWutoIDZ1WYA0btkKpVGicXiCBVKovOtvOdEjMCAYos7BtjD/8X/4Qcck5EHsFY/T8uRjqpjvWsd9nOJF0AGveDYVn/gmsn/4SAvyGYsMV4w8flSnYeisbA/kEEgnE2skUFzOr2HdE2LQZmDGj/DMHS6NjEPlyM+PBWFrGUrwNrIXGNKJE1rYx8Pd/GR/GJSNH7IXg0fMxd6ib1njsWLVIBhJBIhFX6FeZtQ1j/P3x8odxSM4Rwyt4NObPHQo9NViOUASh/vHs/KpF0mYlgTWzScV0SlgAqcxqOHuBtUqPLHAUBqmsAk5dOvbDZyeScGDNuwj1zMeJ9dPxUoAfhm64wvRZCTN8QYVKbl36UGHMJuVw2aYyBAHTk7XekAKZDCy/GGCoDVViMa4ffbhszOW33PpxRL/PTiDpwBq8G+qJ/BPrMf2lAPgN3YBqQgWQ9ULYoKa4FPctTubEY+uBYvQdNgANjCtHiwDWzAYGlMtYomDebgNDN2L7a5IDqnEjkzFeo3jV5qMqqM5vlp+ZmGMVuOK7GJophGFahfzsM2cpomMi8XIz1XH10Hf4QDj9vB27b9zE7q1HYRcahmf13vCq1ueKi1n02qNj2DQ9/czAnKXRiIl8Gerhq6VmcW9ILWOmBvKb8heu+lSiKW4wmsoN4NaNpbWpgsdQ90z5vHn1xQKfNzNXV0ACJpu13nACyGTSSsNX8jVVA83pfrWvvWb1M3pQKeuPBEKIKhKzFnZM9WnRsnNoEEAo1Da5FQhUhxmBu85Z4k+ctahWOcc8qvGkx4hVfXi42SMn/SJ078WU4fz61zF87kG4e7rB5noqUssfqlZReBYpfwBNPDyhNpUiExcu5Ks3qcln+1+xhpeP7i6nCuX1bVi95S56L0/E6e+/xbqlczAptAFKH7KxVU2y8h4Sv12O7bc6YOz8aOw6kY4bZ5ehR/5+xO67pR1FHxu4t/CE+OY5pOXo5Cu+eAnXmO+pGvCGTH5ZQSEcuoZh5MiRms/wfvBr5oP2zZ2MKtyqvgfc7HOQflHvYfCy81j/+nDM3fMbtq3egru9lyPx9Pf4dt1SzJkUigalD1XpEUobd7TwFOPmuTToRCrGxUvXmFZVKHF922psudsbyxNP4/tv12HpnEkIbVCKcjXUBMWNS/hDzwR5KSnIsPGEtzGvZDJ6utngemoqDM2agj/QBB6elQNQBZcu5bif+C2Wb7+FDmPnI3rXCaTfOItlPfKxP3af2rcEermD0xdqgvK6adtod9NgjaY+zSFT+c5d3ZaiCxf1GkdVciOUFD/SJauSW7ilt79xuGzM5bfc+lHeS8S3y7fjVoexmB+9CyfSb+Dssh7I3x+LfdW94AYxur06BF7X9iF2aSwO4jm82t9Ju81ybNw94WZzHamp9/V0W4izmuQAo25kMsbv1CheTVHnfsYV39YNWWzJUFDogK5hWvnZZ3g/PzTzaY/m2m9dJEHDMaTRSez6agO2/fwUBg3vBc09JdM+Z92Q6VxWgEKHrggr18/I4ejn1ww+7Zuj/EudCvSDrkZxr0/tY8Zi+U36y12O+tQMrh5usM9Jx0W9mCg7vx6vD5+LvTf1juHSjftDC2uTjrqve6ao+/piUQxZN4VPc5k6PnQuUoQLF/VufqhuZlAJih/pWsCSW7f09q8GrvzOFZuqfsGcfkYPa6enmE/m4f79qg2jcSw/h8Vw6cEif+KuRRbHbA2ogyEsRYZewwbB9eRKzPoqDXnMkfPSvsK8hV/itzwH1A8dgf6yeCyaFI3EHKaJwsvYMWMuthV0wbCXfFiaY9B97F00A9suFUJRcBFb3p2P3YIQjBzUwHBCqqsgQQnuZGTgAdOx4t5v+GLyfHz3gCm6uIjNXoDLuxZi0uQF2J+pejuxDA9v/Il7JU5wczP+B28cnx+NFx0PYfFbG3AmV4Gia9/hg3lbUZ7THEJGYLDzaXz6xiL8dIONqbiDk8tG49megxCRUKDZqTKyXhg2yBUnV87CV2l5zJHykPbVPCz88jfkOdSH0EaAkjsZyNBMAr99MRnzNZNgIe6I50e/CMdDi/HWhjPIVRTh2ncfYN7Wm8wlNajuKghK7iAj4wFbp8C9377A5Pnf4YHqbhFTQ02gB/sQ+d4uZBQpkX8uFm/P3wvh8yMx4CljLlUfoSP6Qxa/CJOiE6Ex6w7MmLsNBV2G4SUfo5eZHLp8BMHlXVg4aTIW7M9kM2HWe3gDf94rgZObGxyYbUViESj/AR6oAorLF2qE6u6jKdsYYhcSjqEuCfj4rXVIeqBAceZ+zJu3BVnlOc5KDnd3R9w9vBV7MtiMijNxcMEyHMg1fs2uD5eNufyWSz9WgsvYtXASJi/YD02oPMSNP++hxMkNbg7VpxFRp1fxUssr2LD0O4ieH4a+tfkTOPVDMaK/DPGLJiE6MYdFayEu75iBudsK0GXYSzDqRhwxXqN4NUWd+xlXfDsgZMRgOJ/+FG8s+gmaKZzEstHPouegCFRMQRSA4UM9cXzpUvzS9EWEddV+787lcw4hGDHYGac/fQOLfrrBvEmBOyeXYfSzPTEoIgGVNSQQiSGifDxQB505cV+Ec3ujEb0zGeV/l0efWseMhfJz+QtXfbLrNQyDXE9i5ayvkJbHmoK8NHw1byG+/C0PDo76ccKhm1Y2FtemCh5D3TNFndcXi2LIDiHhQ+GS8DHeWpeEB4piZO6fh3lbspgkGqzk7nB3vIvDW/dA4yIHsWDZAXCnVa78zl17zepn9LFrzy64i5F+7jKzinlYfA6L4dCDhf7EWYssjdmaoH3W969FkUMJkf3JQ2pNIpmUhFZS8uj/Ef2ifmFPQbfi59KzblISWEtIJrYhSeNgmhJ3ldSvyKgfRHekzs8HU0ORkERCKxI37kkz92VpH+LWe4FAcY/iZ3UmJxsrEtnWI4nIiXyHL6KZIXKSD4yh2+yA0vRNNLa9nKzZuezsmSxCZwqYtJ0yqn0wWkF3j8ynvk0kZCUUsf3rU5fwwdRWpn0wW7X92CIK9bIlKysRSZj8AkkT6jMnXn2+6lDkJFBkfw+SWotIJhWSldSD+n/0i/qt7Hvxs6izkw1ZiWypnkRETr7DadHMEJLLB1KMalDFXToyvy81kViRkOlEWL8LhQ9uS7Lyh/vvxdOszk5kw+SxrSchkZMvDV80k0LkchoYo3ohsCpcL7fJWgyg8F4NSSyRMPsJyTX4PTp4UzWSZru0yXg6qHuXgK2+RfFznyU3qYCsJTIS20iocfAUiruqefHJOBy6LE2nTWPbk9zamiR29iQVCsk5YBJt1xrv0eEp5C22JrFdO3r3yE1OX1C93CZtOJb2aZ/vVz0onzzHj6R+c7TLleG2TeUXK+4fX0KhHhrfETHf6RQaRI0l5b5DVJy6hoZ4ScmK6UfG9OQROpsmdrflfrmN08YcfssZK6WUvmkstZdbM/vZkT3zUaFzAE3anqH3AoIxSil1QScS2XjRpEMViq0G1fyk1HDsPtKZIJnm+EnJb06yelFxK57mPutGUgGzuUxMNpLGFDwljky5kekYtzBeVflH2pDG6pyESlM/pI7SdvR+IhOCU4/cc6wCR3yrth9bFEpetlbMDyUstgQkadKH5sQbxnbZuUXUWSykjnPPaHKpFtM+pxr+GC0K9SJbKzYnCdO5QEJN+syheHXuMXy5jQUdTfEWk7XYjtq9e4xt54r7bFrTT0zCrovpj2ocqXYxwyG/Ebj8xWR9YttzEiKpv4eUrEUylpOsWIz2p4/UxU0/flW7mtaNJbXJ8OW2Oq57HD7PnXss9HlO+Sv9RRtWJY8vCSUPdXyw3Fa/E4UGNSZJeXxQMaWuGUJeUiuWL2Qsb3hQ6OyJ1N1W60MmXm6rbe1VjWHaXypTTMffbUn1eq/QvaxrTP/Jc8hP6kdzklWjWHqOqvYo/uVd8pF2pcUVQfiANoRKK2oNlx4s66M4apFqDwtjVod5L7cJVP/R9sB/OWU5l5Gcxq7MXFrCz8dZ92KXirIcpCefw224omX75qhfvvHeOjzXdC4ab0/HZ20v4uxNMbx8W8NVot1eBSXyrp3BmWtFkDf3RdtGMu16PZT5uJGWgssPrODs7YtWDaodTEfRbZw/k44C5zbo4CWveutckYuMs6nIzBejcZv2aOZkMLtqKEPO5WSkZSng0tIPPs66Y5R513DmzDUUyZvDt20jGJkFE+k8zqQXwLlNB3jJK0mkzMO1M2dwrUiO5r5tYUwNFsP0di0pGTeEXni6vXGZKlOWk47kc7cB15bsyra+oc2rw6Qulci/kYaUyw9g5ewN31YNoLMes31GEs78qUTj9h3hyS4+OX2hBphjGwNKsnEh6Q/ku7RF26wP4dv3FMalHMW0Ztpr85I7uJh0EfftWsCvdQOY/WfVzbGxSb/ljhVl/g2kpVzGAytnePu2AneoKJH95RC0+tgH+5I+QhezDM4Fi5P0ZGjcqD2aVyQHE3DFeI3itTrMyDk1wGR8MxS5GTibmol8cWO0ad8MFk2B0+cUyM04i9TMfIgbt0H7Zk7Vxq4yLwNJZ/6EsnF7dFIFHcNU3Cuz12LIa8Danf9X/fPftY4Z8+VXw+Uv1dWnctj2y8lpyFK4oKWfD/RSeRVM5sSa1CY1j6nuVUed1xfLY6gk+wKS/siHS9u2yPrQF31PjUPhz9O0W1UuchFJF+/DroUfWjcwO6uald+5YpPTX/RQXPoUfQL3YMDJeEwt929zsOAcNYFTD5b6E1cPZWnMWsDf2vjWiIrG9wrWP1+LQOXheQIo+eUdtKtcxP8tqL66epSEiH59sa//Mfw8q3UdfO3G8++iCCfmhSGm5XKsGdbUrGfv/tUxw1MHlOCXd9pVaXz/OeTh+9f98a7tBiQuDdS7kcNTV5iTZ54sBAJYWVux/6v01iMPzz8RgRWs1f6sXf7XUIbEOR1h7xSAj4teQ+REvunlMYYEnedsR7SZTa+af23M8NQVAitrWFv9Ux3EDn0jlqH70UhsuFz+pDJPXfLPu+PLw8Pzj0CRew3nrhbBtbXpr3p5eHh4eHj+KvjGl4eHh4eHh4eH5z/BP+9RBx4eHh4eHh4eHp4awDe+PDw8PDw8PDw8/wn4xpeHh4eHh4eHh+c/Ad/48vDw8PDw8PDw/Cf4Fza+hTixdhpmb07TLtcFClzdvQjTlh/WLnOQm4CoaR9i+6W6+lMkj2NOtSEXCVHT8OH2S+qlwhNrMW32ZvW/kf8LPp82F9+eN/cHF82g+CxiF8YgMV+7/LegwLU9kXhn2nIcyi7/bUXj5CZEYdqH2zULhSewdtpsbE5j+ngcunniMfTd/F8+x7S536I6FRj4kj6Ka9gT+Q6LwUPgUP+TS3EmUs7fU/954yeV6vSvuLYHke9Mw/JD2U+0/JZgEKd/FU+YD1Qbb0YpRmbKedx70hxAcRW7Fr6D6SuP4I5Fsj3G+Rj0APo5MB+/fD4Nc789b/ZPEj8W9P1Qv0b9R/gXNr4lyPz1AH44c1u7XBcokHXsK0RtO61dNo0yPxlxUTE4fL2uHOlxzKkWKPORHBeFmMPX1Yslmb/iwA9n1P9WFpzFjlXrEH+1DoNI3ByeuSsxfu5Rljb+JoqOY/n0SPwEX3R0MRU2SuQnxyEqRnuRVJKJXw/8gDO3FY9HN088+r6rRMHZHVi1Lh7VqUDfl/QpOr4c0xfFg9p3gEn1P6mw4vz5IH+M2pz5RDeOxvVfhOPLpyPyJ8C3o8u/pGhUitO/gifQB6qLt6oocPXzQfAftRmZT5gDFyZ8iulLjsDaryOczXbOxzsfwx5ALwcqC3B2xyqsi7/69zW+lf1Qr0b9V/gXNr5yvPJFKk591Fu7/G/gyZ6T/JUvkHrqI+3S40CGrm+/Bc8tM7E85e9JF4rr2XActhabInpC8yOsZiJ/BV+knsJHvc3/icx/F5b5rnFfUuB6tiNeWROLiF5y7bp/GJSP7Dv5T3TTq8Ko/hXXke04DGs3RaCnRc7PY8AT6APm525CfvYd5D9xDqzAn3fqY/jaWMzvbqddZw5/5XyesPpd2Q//gzXqb2p8y5C5fwFeCXCHXCyE1LkNXvhgLzK1FxwlV/dgzmA/NKonhI3UBa1CpmLzuULNxtydeDPoVUR+MRf9vR0hFsvhGTQO0adzNduRi51vdkPfecfUS8rso/gkvAd8XGwhtLaBpL43er8Ri/PF6s3VUIjUjZPxjLcTJCIHNOszCz9m6/+5YyVuH1mCsICmsBexMZ1bot/Ub3C+SLuZE5WMQRixOAbzBrXBUxIRbJt0xevfnEdq7OsIcreDSOQI7/4Lcey+yj0N54TcU1gVHogWzrZsPwe4+Q9FRPwtjSOr9TMCi2PmYVCbp5j8tmjS9XV8cz4Vsa8Hwd1OBJGjN/ovPAb10CpKrmLPnMHwa1QPQhspXFqFYOrmc0wL5pG780106ztPu6SCkPNLBEJ9HJl89vDozuyTlKfZlLMdE4PCMGv2i2jlZAsnv+k4zE5k0uYMK9chGNU7E2uXH4R2JLMoTP0ak3q3gKNEDHnzZzFz4wqMDxqLr/9kk1dmY8uEQAz4KJFdk2spO4tPhwRi7Nd/apaVt3FkSRi69vofFkT8Dz19+2Eqs5P5pmb26NYX846Vn8GEbpCD7RODEDZrNl5s5QRbJz9MZ8rh0k3uqVUID2wBZ1tmWwc3+A+NQPytirRmBA7/NeVfjLLM/VjwSgDc5WIIpc5o88IH2KsOXmPy3zT0XRWUg18iQuHjyOS190D3cdEoV0FlX9LM3R/B4R9i4bhn4Fdp7lXgtKk29pZuwuKhT8NVJoTYyQchM/dU5B+jsHGPfhKOHj4usBVaw0ZSH96930CsOpEokb1lAgIHfIRE3Ulx9tMhCBz7NduchdgJo7DuQjHSY0YgMHwDMti5TNq1mjjhpDAVX0/qjRaOEojlzfHszI1YMT5IM3cz/N1Q/1o/6doL/1sQgf/19K3kJ5pcs3TTYgx92hUyoRhOPiGYuSeTtSPVo7x9BEvCAtDUXsT06IyW/aay/FQ+qPEYqFEe18ZuQFN7iGwkcG5pQexy1RlL85hRH2B+c/QThPfwgYutENZMxvrevfFG7HlUTEtrT28nCUT1mqDruCgsndAdQ1ekarZz5G6VPYNGLMWmxUPxtKsMQrETfEJmYo/W2Q3tnYtTq8IR2MIZtiIRHNz8MTQiHreUSmTFTsCodRdQnB6DEYHh2MAcuGa1VZ/q+wBl9hZMCByAj3QBxVz1UwwJ1OZuVcypddcaQaMj8OEIPzQ00J2pODc+Hy5dcuXF6qlUvxmU8wsiQn3gyPRs79Ed46KTKupazvaJCAqbhdkvtoKTrRP8ph+uO9mM+WFOpRplMm7MyZ+W9UectubMM2bEUWVUP2DxV1OctIAC6jmQ37g19GPiaToUPYba2cqpX9QVooIEmtFORg5Pj6WV+47TyfgNNDXQmUQeY2hXtoLobjSFiEUkeeppGvv5j3T86Gaa1cuVhG7/o133VKPfpegQCbmE71b/e2uYK0laDKMVBxMpJeUk7fl4MHkI5TR4o3pno+Qfeou8xU9R93e+piMnjlDsjJ7kaiMgYeAS9fbSlCUULHekjuNX0/6TSXR8x0Ia6Cmj5hP20322XXF9BfWSetDEn4rU+1dFJaOYhFJ36jcvjo4nHaPVQ91JaF+f3Dq9Rmvjf6WTcdOpm1xCXRdf0O5fPqdS+vW9dmTbMpyiDyVR6u8H6ZPBbiRqMo7256t2VelHSFL3fjQv7jglHVtNQ92FZF/fjTq9tpbifz1JcdO7kVzSlRZfKGMHFFDCjHYkc2D6XLmPjp+Mpw1TA8lZ5EFjdmUT03hVFNdpRS8peUz8Sb14NzqEJC7h6n8rbq2mPiIBWTv608R18XTimMo+DUjoMY725pRvtyKZ73jamJBA27Yeo+w8Dptrub/pRXJsMIJ25GlXcJF/mKb4iMmpy2SKOXyCDn85lQIb25JEFEhL0tnc9eZRYanin+ltbykFLklnC6WUsiSY5I4dafzq/XQy6TjtWDiQPGXNacJ+laWNoaDrK3qR1GOiZlFlD4kLhe9+xKkbtgOt7iMiK5kvjd+YQAnbttKxjKOmdVP6K73XzpZahkfToaRU+v3gJzTYTURNxu0nlTsYw7T/cvhXcRItCKhHDn7jaM2PiXT6UDSNYeeX94uiKyVG5M/O1vNdBd1a3YdEAmty9J9I6+JP0LHNs6hXAyF5jNtLKhXo+xJnLjAGp001sSSp50nPzNpIRxJZTogIoUbChjR6d/WOdXdrGLlKWtCwFQcpMSWFTu75mAZ7CEk+eCPd07O5LuSL6ee3vUmqzhl5dHZXhHr/pgPnUvSuZLrPMTejcVLNlHXk0+EpPiR26kKTYw7TicNfsjEbk61EpJk7p24M9c+V5zS+LaF6ns/QrI1HKPHkHooIaUTChqOpWlWWptCSYDk5dhxPq/efpKTjO2jhQE+SNZ9A6pAyFgPMhyzP41yxWylOK8NRZyzPY7lVfeDuVgpzlVCLYSvoYGIKpTD9fTzYg4TywaSZVh7Fv+lN4qe60ztfHaaTx7bQnJCmJLKyoVbTT7Lt3LlbbU9JPfJ8ZhZtPJLI/DaCQhoJqeFoVTxWsvev77E63JLCow9RUurvdPCTweQmakLjWODnnd1FESrZmg6kudG7KPl+zWqrPqb6AGM1tPjnt8lbqs3dnLozHedV58OlS468WAlD+fXqt9a/BdaO5D9xHcWfOEabZ/WiBkIPGqcpApocaSUj3/EbKSFhG209llGHshnJRXo1ijtuuPMnZ96oBLetOfIMpy9U5W9ofIvpyORmJG7/Pp0u1q5iCfuniOE0dtUpytv2KtWXdqXI86qmTIMiawMNkMuo98prpFAnJDF1XpRG5XsostZTqNyeXvjiNnMCfSe7Tac2L6eYo3oNXPExmtJCQp0izlUcb0gexY1wJmnwJ6TSuRrFDVr7nD2J1EWsiOJfdydJl0hS941a7sa+SE72Aygm27ghDVHJKFaPV36Ooh8nkJvQnSb8qHI+hiKLVj0joYZj97IFvTnRI4oLcyK7oAj6/YFmVmUZP9DaqN2UqnYCTcJWFTLN0EX04wQ3ErpPIN3Qq+gZSUMau5etyNtGr9aXUtfI8zp9sHNvGCAnWe+VdM1YseVqfMUS6v7xRZ19bqyl5+xZQvyatQja7X2iblTYhNPm2nVlaQvIX+JD7x6vcByT5O8YSc6swY+sMJSCrn3ej+zMbXyL4ul1dwl1ibyg5yt3KfZFJ7IfEEPM1EbgaHxN6EaTFMUk6RNFN7ST5tTNozgKc7KjoIjfSeMOZZTxw1qK2p3KPNkYXP5r2r+Kj0ymZuL29L4ueCn/pwgaPnYVnSqsKr9KXzrf1SR1saQ7fXyxQgN0Y+1zZM+SlEoF+r5krl8YYFbjy2IveBldLR+g+AhNbqbJCcZR0O1Tm2l5zFG95rOYjk1pQZJOEXSujKvxZZSepXkdpdT+g99ZaeGeW6mROOEkfweNdGYXy3r+qrj2OfWzq0njy53nynNN8LKrFTKq/UPSiSLO6R2kR1H86+Qu6aIXk4y7sfSikz0NUCdPIz5UkzzOGbvmNL7V1xlj9uH010o+oLh9ijYvj6Gjelc0xcemUIty/d3/hoay2O4bpefr97bQqy5CTeNrRu5W2VMsCqZlOmdX11+V36rQj7dHcWHkZBdEEb8/0JyvLIN+WBtFu9WFpZTOzutI0vYf0O8a4WtQW/Ux3QdwNUOcuuOM80rz4dQlR92thOnGl/l3949JlwI1/YV88Nfqi2hNjuxDUboiUKeyVc5Fal8vb3w544ZLr2bkjUqY1fiayDPcvlCVv/5RB2UO0s7dgEOHALSp+P1+W/R+Pxbr3+iAKykXUNC0K4K8rLXbACuXYAS2VuDi2XMoVa2w9kRwz+Yo38PKpQsCmpfgQuolwwfGrVwQ8MpI+OfGIXLGRIwa0gf+rQciKl0BpVIJo7/VXJaB1PN5aOznj6a6E6BblxawUf1bkYXklJsou7AGQ3zbom1bzafHvAQUPrqEtHTd7XrTCGDfzBuNtecQyOpBatMQ7k2FmhVWMsikAijKKr4/0CJBr1Ej4fbbbPg3agLfviMxc2ceAob2R5t62l0E9mjm3VirHwFk9aSwaegO3dAySAUKqIYuu5KCCwVN0TXIq0KfqvkGB7aG4uJZnFMr3EKs3dEl0EPPPp3RqVkRzqdc0nzFKnCEu7uT9jmbMvNszrBu3BiuuIlrmeY856vAtbQLeOjaAZ09KiRB4+DuaKk2JDeKrGSk3CzDhTVD4Ku1c9u2PTAvoRCPLqXBbFPrw6UbZi9Hd3c4qZVjhm4kvTBqpBt+m+2PRk180XfkTOzMC8DQ/m1Q7g4GcPqvlQn/UiIn7RxuOHRAgC54Ydv7fcSufwMB6kfE9OU3jrV7FwTq2cSlcyc0KzqPlEv6CjXfLyxHALlXc7iWy2glh9xOgLKS6gzKZAx4BSP9cxEXOQMTRw1BH//WGBiVDgXLI0qLf/TdzLkZxAk3imtpuPDQFR066/lX42B0N9fh9TE3zwnk8GruWiGjlVwOO0EZSkqMKUWBrOQU3Cy7gDVDfCvGbNtjHhIKH+FSWrqRGGDUII/XSexy1Zka5rFyrFwC8MpIf+TGRWLGxFEY0scfrQdGIV3BfIo5VdkfZ3G+0B2dAhrpfEDeFV3aaBK5ublbIPdCc52zQy63g6CsqgIkvUZhpNtvmO3fCE18+2LkzJ3ICxiK/hWFRY+a1FZ9TPYBAdrl6uHSnQbz45xbl2bUXbOxhnuXQOhSoAs6d2qGovMpKE+BAkd3uGsD4K+Uzby4MaHXOuuPKmEiz5jnC4aUj/MXUqpuuGyshUx9VSlRsJRiI9Q0meUIrGHDViiVCk1ACSSQSvVFZ9uZRxALOAOUWdg2xh/+L3+IuOQciL2CMXr+XAx1MzXtMiiYfFaqE1YggEQi1spbjGJmO/uOYZg2YwZmlH/mLEV0TCRebmZukRFAKNR2ohUIVFPlxLHfZziRdABr3g2FZ/4JrJ/+EgL8hmLDFW2TLBCysTX/rEAg0AWNPiWsAWbaFhoqHNYahUPBmcGMIYRIqK9jG9ioFkk7GJuktY3O+mbZXIVQArFNGcpKzRWKIGCDWOs5mkDd9GsXtBiOpmpktGuKi1khtkfHsGk6O7PPnKXRiIl8GWab2gAO3ah0b22j9TVzdOOIfp+dQNKBNXg31BP5J9Zj+ksB8Bu6AeXuYAi3/5ryr1JN8EJYSYc6DOU3ilAEQxXYqBNRhQq0mO0XRqjWpmpUMlaKBpMCK5G1bQz8/V/Gh3HJyBF7IXj0fMwd6maYQCsJpEq61cloXp4zjBNzIAHzJ0OHV19A62NaN+WYmedUMlqgymLNoAibpjfmjDlYGh2DyJebafVRyYdqksfrIna56kwl+1jqr8qsbRjj74+XP4xDco4YXsGjMX/uUBhOi9ix1TxFambuFjADGZqoGgs59sNnJ5JwYM27CPXMx4n10/FSgB+GbrhS9ZntGtVWfUz3ARoqaYzNqdxVzdOdBXFuhi45664FCEVCg9xhoykCFTNW2azCtf5K2cyKG1N6rWl/VL2t1ZjIM+b5giHmemndYVUfHm72yEm/CN37N2U4v/51DJ97EO6ebrC5norUijevGIVnkfIH0MTDE+p+TpGJCxf0/rBVPtv/ijW8fLR3ZbUor2/D6i130Xt5Ik5//y3WLZ2DSaENUPqQjc0UaxQbd7TwFOPmuTTkVOxSjIuXrjEpGdYN4ekmQ0GhA7qGjcTIkZrP8H5+aObTHs1N3eqqC5T3kPjtcmy/1QFj50dj14l03Di7DD3y9yN23y3tTuZj4+4JN5vrSE29z0pgOYU4q1E4PCs30OaguIFLf+jZJy8FKRk28PQuL2z62Jhnc4YyNwcPyhxRv351waOPNZr6NIfs5jmk3dWNW3Thol5DqAomQknxI13YldzCLe3+1g2ZbmQFKHToijCtnUeOHI5+fs3g0765ybua1VLHurG+l4hvl2/HrQ5jMT96F06k38DZZT2Qvz8W+4y94Mblv/L7JvwrG/U93GCfk46LemOXnV+P14fPxd6bRs5nBMWNSzBUQQoybDzhbZAUzfcLQ0zbtEYor2Pb6i2423s5Ek9/j2/XLcWcSaFoUPpQ1Taq40ZVCKikGI90J8WtW3f1Yopd1Gr/VfO5mca6qQ+ay27iXJreeYsu4GKFw1ugm8eS56zRkM1bVlAIh65hFWOOHN4Pfs180L658bvbNcnjdRK7ZtYZDebYVN8HlLi+bTW23O2N5Ymn8f2367B0ziSENihF+bRsWrRDK+k1nE7Ue0npYSISz2tu5dZt7lbiXuK3WL79FjqMnY/oXSeQfuMslvXIx/7YfepaLdAJX7Paqo/JPmAvMyDzVSpBsS6gmKvegsZVuXVnDvrz4dSldV3WXQVuXPpD709z5iElJQM2nt5GL8jqXjZ9PzSk1nFTk7xh0tZc1MwXapK9aokMvYYNguvJlZj1VRrymGR5aV9h3sIv8VueA+qHjkB/WTwWTYpGYg5rNQsvY8eMudhW0AXDXvJhqZNB97F30Qxsu1QIRcFFbHl3PnYLQjByUAPDCamuvgUluJORgQdMAYp7v+GLyfPx3QPVhU01rxjCEc+PfhGOhxbjrQ1nkKsowrXvPsC8rTe1TueAkBGD4Xz6U7yx6CfcKGbj3jmJZaOfRc9BEUgoUO/0+LAS4PKuhZg0eQH2Z6reWSzDwxt/4l6JE9zcavC3huqHYkR/GeIXTUJ0Yg4brRCXd8zA3G0F6DLsJfhUusoyC3qAfZHvYVdGEZT55xD79nzsFT6PkQOeMupwZtmcUXruHNKtW8K3vSqjF+Hc3mhE70xG+d/zqIxdSDiGuiTg47fWIemBAsWZ+zFv3hZklfcBVnK4uzvi7uGt2JPBdFmciYMLluFArjYAHUIwYrAzTn/6Bhb9dINd/ihw5+QyjH62JwZFJKBGpq5j3QgFl7Fr4SRMXrAfGnd4iBt/3kOJkxvcHIyNyOG/j0z7l6zXMAxyPYmVs75CWh5r+vLS8NW8hfjytzw4OJqXTujBPkS+twsZRUrkn4vF2/P3Qvj8SAx4yvB4c/3CAC6b1gjV3RYBSu5kIEOTSPDbF5MxX5NImCdaQe7uDse7h7F1T4bqngcyDy7AsgO5ugZTIIJYRMh/8EB9AW353Lj9nTk8woe6IOHjt7Au6QEUbO77583DlnKHt0g3jyfPOYSMwGDn0/j0jUX4STMoTi4bjWd7DkJEdYPWJI/XReyaW2e0cNq0kg/YCG0gKLmDjIwHrLYocO+3LzB5/nd4oPIg1bTkoZgwohES5o/A9C8P4fjRrfhw5NvYcps0TVud5m4rCC7vwsJJk7FgfyaTQJVKbuDPeyVwcnODA6s7IrEIlP8ADzTCc9qk6NxeREfvRLJRhzXdB1jJ3eHueBeHt+6BxlUPYsGyAyh3VU7dcVJpPly6FNZl3SU82BeJ93ZloEiZj3Oxb2P+XiGeHzkAlVKghrqWrZIfGlDruLE8b3DZmosa+YL2Wd+/FkUOJUT2Jw+pNYlkUhJaScmj/0f0i/qVPwXdip9Lz7pJSWAtIZnYhiSNg2lK3FW9B7EdqfPzwdRQJCSR0IrEjXvSzH1Z2gef9R8kv0fxszqTk40ViWzrkUTkRL7DF9HMEDnJB8bQbd2z0IYo7tKR+X2picSKhOwcwvpdKHxwW5KVv6jCth9bFEpetlZkJZKQ2EZAkiZ9aE686uU6ttmsl9uk1HDsPtK+b0bFv7xLPtKutPiP8oexH9CGUKn2pSC9OTFK0zfR2PZysmb6sbNn+hM6U8Ck7ZShOlSlH2lDGruvYmT65V0fknZdTLqhN1CotPwtTibvrXia+6wbSQXWJJGJyUbSmIKnxNFVtcKNwPVym6wFDQjvRQ3FEpIw+whdg+m9gzc1ulFtlzah8Qf1dcNhczWllDTbl+yCl2pfCMymNf3EJNSflxHuH19CoR4SshKKmK/Up06hQdRYon1onlGcuoaGeEnJyoadVyIjj9DZNLG7bcXLPoq7x2hRqBfZWjEfkjDdCCTUpM8ciq/eeUy/3GZCN5oXH6TUZPxB3ctHnLoppfRNY6m93JqsJXZkL2X+6hxAk7ZnVP+CCYf/mvQvtkdOQiT195CStUhGUjYHqUd/+kgVvEbl1/ddzYsbshYDKLxXQxJLJCz2heQa/B4dvKnRp74vcc/dOKZtWjX2qDSZ5vhJyW9OsnZFZRR0L34WdXayYfqypXoSETn5DqdFM0NILh9IMSpfKE6lNUO8SGrFZJSx83qE0uyJ3cm2PGewsx2e4k1iazHZtXuXjhWbnlvVODHP35nD05JQD5IwvYpY7qrfKZSCGksq/JnL3w30z+EnVXONSpVzyE/qR3OSq00edPfYIgr1siUrKxFJ2LwFkibUZ068Jh8b86Ea5nHTsWvGy20m6kzN8pihDxy5GU+zOjuRDdODbT0JiZx8afiimRQil9PAGK2OC1Loywk9yEvObF+vMQWMmExDvMXU7v3T6hG5crfKntKGY0lnolJKnuNHUr856iUDe5em06ax7Uluzcays2exLSTngEm0XRP49OjwFPIWW5PYrh29e+Qmp02y1/QjsVC/plXCZB9QTKlrhpCX1IrNScbm5kGhsydSd1vty233uHTHHecG8zlWzKlL03nRENMvt8moxYBw6tVQTBKJkNUmVwp+7yBpUqAmR0qbjCd916pL2arkoixdjVJhOm7MyJ9ceaMKpm3NlWe4faEqAtV/tD3wX05ZzmUkp2VB4dISfj7O0L0uwyjLQXryOdyGK1q2b4765RvvrcNzTeei8fZ0fNb2Is7eFMPLtzVcJdrtVWBXktfO4My1Isib+6JtI5l2PTdFt8/jTHoBnNt0gJe86qWYIjcDZ1MzkS9ujDbtm8HJYAKPGXaleCMtBZcfWMHZ2xetGlSrADMpQ056Ms7dBlxbtkfzCoXXFCXyryUh+YYQXk+3h1lqr87mKkp+xSz/wbgyKwnfvKr59Shl9loMeQ1Yu/P/0MDYlXI5Jdm4kPQH8l3aom3Wh/DtewrjUo5iWjPtLRF2tXgx6SLu27WAX+sGqPpnvBXIzTiL1Mx8iBu3QftmToa+ajF1rBuGMv8G0lIu44GVM7x9W8EcdzDpv1z+xeS5nJyGLIULWvr5wNlShbDxryUl44bQC0+3bwSTKuCYu1E4bWo5yrxrOHPmGorkzeHb1pjMJbhzMQkX79uhhV9rNKh8UmUeMpLO4E9lY7Tv6An1DXkL5ma2vzM5si8k4Y98F7Rtm4UPffvi1LgU/DytmXazZbp5LHlOkYuMs6nIzBejcZv2aMY5aE3zeA1j1+I6o4cpm1b2AeTh2pkzuFYkR3Pftoa5QHkbqSdvwqH902ha/pJS8SFMatkfqW9dxJEpbtqVdZm7WW66kYaUyw9g5ewN31YNoJsys0FGEs78qUTj9h3h6QDTNlFmY63GYfF/JhzWVB9Qcuciki7eh10LP7SuHFBMl9Xqziwqz0cdkKZ1WYd1V5l/DUnJNyD0ehrtzSsCdSebsVxkQO1rnqV5w6StubDUF9Tt7z8JI90/z7+fe3EjqVnAPL0/ffOIjs8dTK99k1nNVaRxDP5MCg/PP4aa+TtzeIM/V8ZjJk9CnSn9nT7wFZPniE2UXsCWy+7Sr8ueJ1fJ0zT7dHV31J8cHh2fS4Nf+4YyLXJYHp7Hj8n7Bk8kAgGsrK3Y/1X3eDbPv47iRCz/LAPDV0xDx4qrRgk6z9mO6GFNjT5vVy0CK1ir/Ue7zMPzj6CG/g5VvrSGFe/wlvEk1BkbX0xa/DbcD4+Bt1yGerau6PbhNfRcuh7TO5rzgu/fi6TzHGyPHoam/7wug+dfzt/6qAMPDw8PDw+PCcruI+PcH7hdag+PVi3RwOKv9Hl4ePThG18eHh4eHh4eHp7/BPyXEDw8PDw8PDw8PP8J+MaXh4eHh4eHh4fnPwHf+PLw8PDw8PDw8Pwn+Ec0voUn1mLa7M3aJZ6/HwWu7lqId6avxJE7mt+zU5GbEIVpH27XLvH8VZSlbcact9/DF7/madcwchMQNe1DbL+k/dWu4kyknL8HjbUKcWLtNMzenKZe+mdSjMyU87innlDl+SiQuW8+RvQLRvfeYxD1zeonOH/kIiFqGj7cfkm7/NdhEK+FJ7B22mxsTqvyW041RN8+PDXFoPZVjuk6JP+XzzFt7rc4X1fm56mK4ip2L5qG5YfvaVfUDvP7IgvyfZ3ngSeTf0TjW5L5Kw78cEa7xPO3U5iAT6cvwRFrP3R0LnchJfKT4xAVc1i7zPPXkINdkdMQ9Zsc/r522nWqv2WejLioGBy+zhIYS7ifD/LHqM2Z2sa3BJm/HsAPZ26rl/55sAuvzwfBf9RmZKonVGk+hXsxe8xC/GzTDYMH9YVP4eknN38o85EcF4WYw9e1K/4qKsVrSSZ+PfADztyui6aqsn14aop+7TOI6TpFiYKzO7BqXTyu8o3v40ORhWNfRWHb6QfaFbXD/L7Ignxfp3ngyeUf0fjKX/kCqac+0i7x/N0o/ryD+sPXInZ+d+haLZ6/haJryPd4EzFfvQPf6n7shvKRfSdf2/SqkOOVL1Jx6qPe2uV/GoT87DvIr5iQ4XyUeVnIymuI56bOxzuTX0WfsRv4/MGF/BV8kXoKH/W28BeTjFLZPjw1ha99PNVhvm9YkO/rNA88ufwtjW/uzjcRNGIxYuYNQpunJBDZNkHX17/B+dRYvB7kDjuRCI7e/bHw2P2K/bv1naf+t+qrwVOrwhHYwhm2bD8HN38MjYjHLXWSzcXON4MwYnEM5g1qg6ckItg26YrXvzmP1NjXEeRuB5HIEd79F+LYfW1WVmbj6Cfh6OHjAluhNWwk9eHd+w3Eni/WbK9M7imsCg9EC2dbNpYD3PyHIiL+lrapUCL76CcI7+EDF1shrG0kqO/dG2/EnkfFaIWp+HpSb3g7sXnXY/MeF4WlE7pj6IpU9WZl9lF8Et4DPi62EFrbQFLfG73fiIVRcQoO4YM+3TDmq/I7eSpKcCoyFEGvb9EuG1KWuR8LXgmAu1wModQZbV74AHsz2dUd08OWCYEY8FEiG0FL2Vl8OiQQY7/+U71YLlvroNGI+HAE/BqakI1JdPvIEoQFNIW9iM3DuSX6TWU2LtJuNmnHquSeWoXwwBZwthVB5OAG/6ERiK/YuQRX98zBYL9GqCe0gdSlFUKmbsa5Qs1Wjb8txabFQ/G0qwxCsRN8QmZij2renBTg0Ad90G3MVwZ3r0pORSI06HVsuV1ZYI0Pvhr5Beb294ajWAy5ZxDGRZ9mW8oxLW/O9okICpuF2S+2gpOtE/ymV76LzvxsywQEDvgIiVZ+GB0xEwM8CGc/HYLAsV9r99GizELshFFYd6EY6TEjEBi+ARkKlYzd0HfeMbZDDWKGQ35OcnfizaARWLppMYY+7QqZUAwnnxDM3JOJcouUXN2DOYP90KieEDZSF7QKmYrN6hMokRU7AaPWXUBxegxGBIZjQ0ZOxXzKzizDS88vQWLJbeyc1A1d39yJTIP8YSIGGKbjLwfbJwYhbNZsvNjKCbZOfph+uOqkLYrhKnDp1rK4YZPF/gWvIMBdDrFQCuc2L+CDvTo9V6CySbe+mHdME/3K20ewJCwATe1FLCc6o2W/qfimIni1PrN0ExYPfRquMiHETj4ImbkHmQpj9lHll9s4siQMAU3tIWJ50bllP0xlPqZLB6byaiXU/vMqIr+Yi/7ejhCL5fAMGofo03oRVq3/qDDPjpwyV8HyWOLyFcPaZwoOvyi5ij1zBsOvUT0IbaRwaRWCqZvPwWDWlINfIkLh48hyrL0Huo+LRpL26SnjOYkrx1eCI+6V2VswIXAAPkqsqECsBH2KIYFj8fWfWn2Z8MsHe99Fz+Cp2KNpGzTkf4+ZvXvibdVKrlpviQ+qcrAZtX7j5Gc0td6hGfrM+hHZ+n88VtsLtHCUQCxvjmdnbsSK8UHaequX43UF2SDHW9YXled7FWXI3L8ArwS4Qy4WQurcBi98sJfFLttUKQ+YjiNTeUC7S13GfV2i+ju+fzV3o0OIJWFy7zeP4o4n0bHVQ8ldaE/13TrRa2vj6deTcTS9m5wkXRdX7C9xCVf/u/TX96idbUsKjz5ESam/08FPBpObqAmN25+v2pOiQ8QklLpTv3lxdDzpGK0e6k5C+/rk1uk1Whv/K52Mm07d5BLquviCery7W8PIVdKChq04SIkpKXRyz8c02ENI8sEb6Z56D31K6df32pFty3CKPpREqb8fpE8Gu5GoyTjSnH4rhblKqMWwFXQwMYVSTu6hjwd7kFA+mDaqB8uj+De9SfxUd3rnq8N08tgWmhPSlERWNtRq+knVALQ1zJUkLYbRioOJlJJykvZ8PJg8hHIarBmgEjm05ZWnSNrtI7pQ/gu8RYfpzWb1qNdnV7Qr9ChOogUB9cjBbxyt+TGRTh+KpjHtbEneL4qulFynFb2k5DHxJyrS7m74c6dcsino+opeJPWYqD60NGUJBcsdqeP41bT/ZBId37GQBnrKqPmE/XRftd2kHStR+iu9x+RsGR5Nh5JS6feDn9BgNxE1GbefVHsXJMygdjIHenrsStp3/CTFb5hKgc4i8hizi7IVTHKV/0jqkeczs2jjkURm4wgKaSSkhqN3a8bnIGfLK/SUtBt9pFMyHX6zGdXr9RldqfLLxxofFEmeYvJ8Tj8eP0qbZ/UiV6Eb/W+Xxoam5VXQrdV9mE/IyHf8RkpI2EZbj2Wrj9Oh0/VPOmPRz297kzRwiXpJcX0F9ZJ60MSf7tLZXRFqn246cC5F70pm+lfJKCGXcNX8LY8ZLn1zovo5WImE6nk+Q7M2HqFEFicRIY1I2HA07c5j2wsSaEY7GTk8PZZW7jtOJ+M30NRAZxJ5jKFd7AR5Z3dRhCqumg6kudG7KPm+bj6KWyfo209HURuRM/WZ8Tl9ceA83dDLHyZjoIzDxxW3aHUfEVnJfGn8xgRK2LaVjlWZsIUxrNDFnQou3VoUN8wnkhYEUD0HPxq35kdKPH2Iosew/CXvR1FXSgziVWMTFwrf/UgVvLQkWE6OHcfT6v0nKen4Dlo40JNkzSfQflXwav1HUs+Tnpm1kY4ksjlGhFAjYUMazQxY1T6llLIkmOSOHWn86v10Muk47Vg4kDxlzWmCekCOvFoZlaxiEUmeeprGfv4jHT+6mWb1ciWh2/9IHWIc/mOeHblkNoalscTtK/q1TxfTFUFfgWm/KKCEGe1I5sD0tXIfHT8ZTxumBpKzyIPG7Mpm2USbcwTW5Og/kdbFn6Bjm2dRrwZC8hi3l1UZ4zmJK8dXgSPujc3P4CfmOfxScetLGujoyHR3V3s00f2tr5KLPJTW31Rw1HpLfZCr1ufTobe0tf7rI3TiSCzN6OlKNgKhtp7m0+EpPiR26kKTYw7TicNfMh9tTLYSkXY7d463rC8qz/eqFLiAAuo5kN+4NfRj4mk6FD2GHSunflGsZ9DPA1xxxJEHuGPIQp3XIX9f4yvSOrOKoh9pgpuQ3Cf8SJpfRldQ1qpnSNJwrHpJ38CP4sLIyS6IIn5/wPZilGXQD2ujaHeqStGaxCNijqEbegK5Cd1pwo/a31xXZNGqZyTUcOxe1QLdPrWZlscc1SvYxXRsSguSdIqgc1WamkcUF+ZEdkER9PsDzQFlGT/Q2qjdpDq94vYp2rw8ho7qJdHiY1OohaQTRagGu/8NDXWyo75R1zSyq7i3hV51EWoaX8VtOrV5OcUcVSUjLcXHaEoLCXWKOEdVxGE83BVODcUdad5ZzW+3F/wwgdwdQmjNdZ0M5RQfmUzNxO3p/dPF2jUs/H6KoOFjV9GpQo7Gl1M2/ca3iOJfdydJl0hdQ864G/siOdkPoBjWx5m2YyUexVEY01tQxO+kUXsZZfywlqJ2p7JLiTza9mp9knaNpPMV52L+s2EAyWW9aeU1lvDU/hZMy66WS15MRyY3U9vYLB7uovCGYuo47ywLVUbBDzTB3YFC1lzX6aICjQ+KOy+itHJ5mM+tD5WT/Qtf0G0Fl7yl6iIjlvShqBtVR9dgSePLdig9S/M6Sqn9B79r5DdIhJbGDLe+OdE2LsHLrlboT+2b2jjJ2/Yq1Zd2pUjdCZgIG2iAXEa9V6pip5TOzutI0vYf0O/qCenPR7XvKnpG6kmTDmmUo58/TMcAh4+rGyYxSfpEUfWmsTCGDRpfbt1aFDfFR2hyMzG1f/808w4t+T9RxPCxtOpUYbWNb1H86+Qu6UKRhsFLLzrZ0wBV8Jb7TPAy0oWU6lyaOaoKmoF9iuLpdXcJdYm8oDf/uxT7ohPZD4ihbI68WgW1/4ip86K0ivEUWespVG5PL3xxm3K5/MccO3LKbAwLY8kMX9H3XVONr0m/yNtGr9aXUtfI87q5MDk2DJCTrPdKuqa92BZLutPHF8v3UNCNtc+RPWvkvr5Xvl0/J3Hn+CpwxD1X48vtlzm0ZZgLyQdsoFvqE9yjTS/Vp6de2sQsw1XrLfNBzlqfF0cjnKUU/Em6zkdvrKXn7LWNbf4OGunMLoD0/Etx7XPqZ1ezxpe7LyrPj5raJ27/PulSYD79FDGcxq46pbGRNg9w52GOPFDXcV+H/G3P+Arsm8G7sbV2QYZ6Uhs0dG8KoXqFFWQyKQSKqk/aS3qNwki33zDbvxGa+PbFyJk7kRcwFP3b1NPuIYB9M2/ohq4HqU1DuDfVjAwrGWRSARRlqnvxVnAJeAUj/XMRFzkDE0cNQR//1hgYlQ6FUgllld+0k6DXqJFw+202/Bs1gW/fkZi5Mw8BQ/tDdXorlwC8MtIfuXGRmDFxFIb08UfrgVFIV7Cx2GBlf5zF+UJ3dApopHvGRN4VXdqUy+aCgFdGwj83DpEzJmLUkD7wbz0QUekKdrwSxn5iz67vMIS6pGD7N0koQwGObNmLhz1fwaCGlU2rRE7aOdxw6ICANiLtOsC29/uIXf8GArge6bFENkUWklNuouzCGgzxbYu2bTWfHvMSUPjoEtLSS8ywox6SXhg10g2/zfZHoya+6DtyJnbmBWBo/zaoV3YFKRcK0LRrELy0NlfbNTgQrRUXcfZcqXqNQO6F5q7lOrGCXG4HQZnuKzWT2PXFsFAXpGz/BknMJQuObMHehz3xyqCGOjsaYA3P4J5oXi4P012XgOYouZCKS0VmyuvoDnenvyo8LYgZM/XNiUAOr+auFfqzksthJyhDSUkprqRcQEHTrgjSnYCpMBiBrRW4ePYczDyDEThiQGqOjwvg6O6Oak1TgxiuwAzdWhI3ypw0nLvhgA4BbVAxW9veeD92Pd6oNuAVyEpOwc2yC1gzxLcidtv2mIeEwke4lJaufRRKALlXc+hCSg65nQBlJVVjSpGVjJSbZbiwZgh8y8dr2wPzEgrx6FIa0ktM51WjWHsiuGdzFmkarFy6IKB5CS6knsMfZvmPaTtyyXzpz18R91UMYmI0n6/3pyFffaQFsVQbX6mEKb8ou5KCCwVN0TXIq0JfqnMHB7aG4uJZlIestXsXBHpUaBQunTuhWdF5pFzSWlw/J5mR441SbdxzzdYcv3TE82H9YXt0O767zWpu9nfY+pMIz7F19VXzMVnrLfNBzlqfkYrzeY3h599Uz0e7oUsLG/W/FdfScOGhKzp09tBtbxyM7i012y3F7LygzEHauRtw6BAAXQq0Re/3Y7H+jQDtsooyM/Nw9XngscR9HVFN2D9+BEKhtsnVIRDoFFwtjv3w2YkkHFjzLkI983Fi/XS8FOCHoRuuaJ9bE0DIxjZEAONDK5G1bQz8/V/Gh3HJyBF7IXj0fMwd6latYhz7fYYTSQew5t1QeOafwPrpLyHAbyg2XGHJKmsbxvj74+UP45CcI4ZX8GjMnzsUbgaDkTqpGUWZhW1j/OH/8oeIS86B2CsYo+fPxVDDAQyR9ULYoKa4FPctTubEY+uBYvQdNgANjBxSqkq2NtYQCrQrjGCYflQJQbvGItmKUczynn3HMEybMQMzyj9zliI6JhIvN2PBzWlHfRzR77MTSDqwBu+GeiL/xHpMfykAfkM34IqCBRhrRm2EhglDYG0DG5X8Co38AmtrXdJXY0IJVZChV9ggNL0Uh29P5iB+6wEUswuOAcaUrEYAiVRq4EPWTO8gJg9Lz+bKa8MlYqVaoUq4lVaZiSUxY578nLDB2RQNKJ9uieYEbDw92P42bIVSqajhHDWYjAGzfFzA5LapkLUKNYnhCszQrSVxU1rG1tnA2lTAG6FYE7wIm6YXuzPmYGl0DCJfbqa1i0oP1RiwMsXFbGb26Bg2TW+8GZizNBoxkS9Dkw6qz6tGEUgglRpEmMqsLMRYhJnlPxx25JDZM/sovlqxHMuXaz4rtv2GXHVatyCWauUrlTDlFyUK1sbYwNCt2Pw1CkFFyApFEOqfmm1XLZaXAMOcZEaON4aJuNdQKbpVFwDaVeb4Zb2+wzHQ6Wds330DN3dvxVG7UIQ968C2cNd6S3yQs9azPKNgI6tUXAHzWYlYN1sSsLi21pu9QHNRZEAVdVST483OC6Uq0dh5hdX7vhbz46gagz6OuK8jahBhfydK3Ev8Fsu330KHsfMRvesE0m+cxbIe+dgfu6/6FzyqQ3kd21Zvwd3ey5F4+nt8u24p5kwKRYPSh6oyw/5XCeU9JH67HNtvdcDY+dHYdSIdN84uQ4/8/Yjdl4Xr21Zjy93eWJ54Gt9/uw5L50xCaINSPGQDqXpdmxbt0Ep6DacT9R7efpiIxPOaayfl9W1YveUuei9PxOnvv8W6pXMwKbQBSssHMIoY3V4dAq9r+xC7NBYH8Rxe7e+k3aaPFep7uME+Jx0X9RRVdn49Xh8+F3tvqhyYUFL8SBdYJbdw665mX4tks24ITzcZCgod0DVsJEaO1HyG9/NDM5/2aM7Es8SOynuJ+Hb5dtzqMBbzo3fhRPoNnF3WA/n7Y7HvblN2LhtcT01FxbtXjMKzKfgDTeDhWbkI1Qxxt1cxxOsa9sUuRexB4LlX+8OYljUokHnhgvYOkIp8pKZegbWXD1pI3OtEXlWyoZJiPNIZC7du3a3qs2pY4dX+q9bY1I381WMDd0832FxPRarhCZDyB9DEwxOqMwhqNCHTMbDnty01iD9DahbDWjh1a21R3FjV94CbfQ7SL+rlm7LzWP/6cMzde1O7ojLWaMj0LysohEPXsIrYHTm8H/ya+aA9C15zioa+fawbesJNVoBCh64IKx9v5HD082sGn/bNWRyZyqu3tKNUQpGJCxd0EYZ85i9XrOHl0wpeZvgPF1wyu3ScxvwlGcnJms/pmFFobGE1rZWvGGC6Lt5tyuZic53loPt6+aEQZzUKQXnIKm5cwh96Ks1LSUGGjSe8jTWxnDm+Bq0Fy2nWVIJiXVJjJegWNCXITL+UBGH4kEY4uesrbNj2M54aNBy9bNl6rlpvsrZX9kEld613bwFP8U2cS8vR6bz4Ii5dY80kw7qpD5rLVNv1cnbRBVzUa/jMz/EW9EVW9eHhZo+c9It668twfv3rGD53r3ZZhXl52BSPJe7riH9Y42sFweVdWDhpMhbsz1S/PVn28Ab+vFcCJzc3OFg8G9VVsAAldzKQ8YAZV3EPv30xGfO/e6C+WinS7lWBlQCXdy3EpMkLsD9TfXY8vPEn7pU4wc3NQX2nRlByBxkZD5grKnDvty8wef53eKC6OlYNJg/FhBGNkDB/BKZ/eQjHj27FhyPfxpbbpCkUqqsrQQnuZGRAI85v+GLyfGjEqSJNBaJOr+KlllewYel3ED0/DH2r+Rtjsl7DMMj1JFbO+gppeSzY89Lw1byF+PK3PDjUd4K7uyPuHt6KPRlsbsWZOLhgGQ7kaqPOItkcEDJiMJxPf4o3Fv2EG2w4xZ2TWDb6WfQcFIGEAsvsaCW4jF0LJ2Hygv3QqP0hbvx5DyVObnBzcEboiP6QxS/CpOhE5LC8Unh5B2bM3YaCLsPwko+xWy2VKcK5vdGI3pkM3XvhlRB1wqsvtcSVDUvxneh5DKtOyWoI9/cuwoxtl1CoKMDFLe9i/m4BQkYOQgOWeGovrxXk7u5wvHsYW/dkqLwLmQcXYNmBXON3AwQiiEWE/AcPmMfWFjPkLzqHvdHR2JlcrTZNUj90BPrL4rFoUjQSNSfAjhlzsa2gC4a95MNKoAAisQiU/wAPLJyQ6RgQ1yj+DKhhDGvg0q3Qsvwn64Vhg1xxcuUsfJWWxwpyHtK+moeFX/6GPAdH7U5VcQgZgcHOp/HpG4vwkyZ4cXLZaDzbcxAiEgq0e5mikn0cQjBisDNOf/oGFv10g8mtwJ2TyzD62Z4YFJGAAo68ahS6j72LZmDbpUIoCi5iy7vzsVsQgpGDGsCZ03/MgEtm7W61ola+og9HPnUOxYj+MsQvmoToxBym3UJc3jEDc7cVoMuwl1CecujBPkS+twsZRUrkn4vF2/P3Qvj8SAx4ylhh5crx2t0swEruDnfHuzi8dQ80JeggFiw7gPISZJ5fihAwfCg8jy/F0l+a4sWwrtA81MNR6y30Qc5a7/g8Rr/oiEOL38KGM7lQFF3Ddx/Mw9ab7Nwq7EIQPtQFCR+/hXVJD6Bg9Xb/vHnYkqXQbLcox1tST2XoNWwQXE+uxKyv0pDHuvS8tK8wb+GX+C3PcJ7ceZiDWsd9GS4eiMba7aeRo1VbnaF91vcvRfVQtrThWNqnfd6fin+hd32k1HXxHxUPQT/YEEpS7YPb+g9xU2k6bRrbnuTW1iSxsyepUEjOAZNoe4bqSNXD1lJqOHaf9iU51dDvko+0Ky3+o2Jk2hAq1T7oraB78bOos5MNWYlsqZ5ERE6+w2nRzBCSywdSzG3dg+vllKZvorHt5WRtLSE7eykJhc4UMGk7qU6vuBdPszo7kY2ViGzrSUjk5EvDF82kELmcBsbc1jx0XpBCX07oQV5yMQnrNaaAEZNpiLeY2r1/WjUAxc/qTE42ViSyrUcSkRP5Dl9EM0PkJB8YQ0bE0VJKqQs6kcjGiyYdKp+5MRSUkxBJ/T2kZC2SMd1ZkdSjP330i+Yd3OLUNTTES0pWNhKSSWTkETqbJna31b7cxiWb/sttDMVdOrYolLxsrZhuJSS2EZCkSR+aE6/Vg0k7VqaU0jeNpfZya7KW2JG9VEhC5wCatD1D4y+KWxQ/91lykwrYdhk7l4QaB0+huKvaV7kq+xsbL3mOH0n95miXs2lNP2aProupwk2MUJq6gDqJbMhr0qEK/6qK5kUCx87PU3BDEQlFQrISN6aeM/dRVrn9TMqreZFE2mQ8Haz6DouO4lRaM8SLpFY2JJExe3mE0uyJ3cnW2MttTNrDU7xJbC0mu3bv0rFi/ZcdLI0ZBoe+KXsN9RML1fFsFNULFNKGNFZnECpNnkN+Uj+ak6zVQfxcetZNSgIWZzIxm2PjYJoSd5VZTsOjw1PIW2xNYrt29O6xLL35sKNNvNymGrvaGODy8VLVS1FSajL+oO4F0MpYGsOV/qoDp24tihs2XE4CRfb3IKm1iGQsbqyYT/T/6Be6z/RQ3ctt7Ci6e2wRhXrZkhXLZRKmf4GkCfWZE6+Vv6rPMAPSHD8p+c1JVi8a2qeYpYNjtCjUi2ytmF4kYrIRSKhJnzkUr1WIqbxaBbWsjtT5+WBqyOJLxGwobtyTZu7LYpKr4PAf9cttHHZkcMlcFQtjyQxf0fddUy+3cfmF4lY8zX3WjaQCtl3G5iJpTMFT4kjjVpqcI2sxgMJ7NSSxREJCKyG5Br9HB2+q5lpNTuLK8ZXhjPtiSl0zhLykVkw+GZPTg0JnT6TutuUvwnP5pZayc7SoM8vnHefSmfKEwY7lqvWW+KA5tV5x9wjN79uEJEyXImaP+l3CaXBbmfblNcb947Qk1EOznflx/U6hFNRYotvOkeMt64t0+ZElBUqI7E8eUmsSydg8rVj+6f8RqduASnnAdB7mzgO1i/s8+nKAyo7zSPvufp0hUP1H2wP/g2BXpDfSkHL5AaycveHbqgEk2i01QZl3DWfOXEORvDl82zZi10QcKPNxIy0Flx9YwdnbF60a6J1dmYdrZ87gWpEczX3bopH+YMrbSD15Ew7tn0bT8oe3iw9hUsv+SH3rIo5McWMr2BXYtTM4c60I8ua+aGswQHUokf3lELT62Af7kj5CF917O8Ypy8Hl5DRkKVzQ0s8Hzvr7s6vYi0kXcd+uBfxaN9BeLZdjuWyK3AycTc1Evrgx2rRvBicD2SyzozL/BtJSLuOBlTO8fVtBX+0qynLSkXzuNuDaEu2b19e90GMGyuy1GPIasHbn/xl9PlqFMvtLDGn1MXz2JeGjapV8D+uea4q5jbcj/bO2uHj2JsRevmjtWnVmtZFXQwnuXEzCxft2aOHXGg1MvaDI/DIj6Qz+VDZG+46eVe8O1oDq5Wf+uHYIXsNa7P6/Btp1NYD5aXryOdyGK1q2b476lXwnLyMJZ/5UonH7jvC0dELVxkBN4q8ytR/DtG9Ymv/KkHM5GWlZCri09IOPQcCbQJGLjLOpyMwXo3Gb9mhmGLwcGLOPArkZZ5GamQ9x4zZo38zJcF6m8qo+99bhuaZz0Xh7Oj5rexFnb4rh5dsaVULMpP+YC4fMtaYu/K0cLr9gfpCeDI1btUdzYwphNriWlIwbQi883d6MWsgwneMtp+TORSRdvA+7Fn5obSyp1cIvOWu9uT6owlStr6AIt8+fQXqBM9p08IK8SpoqQfaFJPyR74K2bbPwoW9fnBqXgp+nNavYbnaOtzAvlOVcRnJaFhQuLeHn41y9X9c6juoo7uuQf2jj+w+lLAmz/btiU7sN+HFtGJqJ7yFxxSgMeC8Lr/2ciA87GnmWigvVVwCPkhDRry/29T+Gn2e1Nu+rPB49inBiXhhiWi7HmmFNUbWFUisZSRH90Hdffxz7eRZaV6tkXeN7Zf3ztbog+8dSdALzwmLQcvkaDGtaBx02D48+FY3vFax//j8ZYTz/Rkp+wTvtKje+PI8Dvir9ldj4YtLit+F+eAy85TLUs3VFtw+voefS9Zhek6aXXcEnzukIe6cAfFz0GiIn8k1vzZCg85ztiDba9DItJ85BR3snBHxchNciJ5poelUIILCyhpWgDl8o+6ch6Yw526P5ppfn8cBiy8raiv3ffzbCeP6VqPxaUzt4Hi/8Hd+/g7L7yDj3B26X2sOjVUs0qMW3W4rcazh3tQiurSs9ssBTdyhyce3cVRS5tjb/a2IeHh4eHh6eJw6+8eXh4eHh4eHh4flPwH8XycPDw8PDw8PD85+Ab3x5eHh4eHh4eHj+E/CNLw8PDw8PDw8Pz38CvvHl4eHh4eHh4eH5T8A3vjw8PDw8PDw8PP8J+MaXh4eHh4eHh4fnPwHf+PLw8PDw8PDw8Pwn4BtfHh4eHh4eHh6e/wR848vDw8PDw8PDw/OfgG98eXh4eHh4eHh4/hPwjS8PDw8PDw8PD89/Ar7x5eHh4eHh4eHh+U/AN748PDw8PDw8PDz/CfjGl4eHh4eHh4eH5z8B3/jy8PDw8PDw8PD8J+AbXx4eHh4eHh4env8EfOPLw8PDw8PDw8Pzn0BADO2/nygU1/ZgyfJDuK3UrjDABl6D3sPknk7aZeMUnliLufvt8PGCMO0aExRnIuWKLdq0qv/PuRrgkrnwBNbO3Q+70XMR1sZGu9JyLNIjzxOB4upufLQ6A11nvole9fnr2yeS3ARERRxGg9fex0ve1tqV5ZThwtYFiD7+EPU6v4Y5r7ZmWU8fBa7uWoyVR+7DfeAsvNVLjmt7lmD5odswnjK9MOi9SejpRFX3EwhgZSOBfQNvdB80FH2a19NuAPLPx+GzTzfh6IW7UMi90O2lSXh7hD+cautSylyc3/8VNmw/grPX7qLU1g1+fUfijf/rBy+Jdh8LUFzdhcWrjsP+hWl4o6ezOh/mJkQh4nADfDznJc1OtaTmulDgys5IrD7fDkvfG6hdVzuKM1NwxbYNWrHYNszPCmTui8B7K35CRmlzjF76Pyi++aHWNYCH59/EE1sRFTd/xterNuCHC3dw7969Kp+HjxTaPaunJPNXHPjhjHbJBIqr+HyQP0ZtzjReNJ5EzJG5JBO/HvgBZ25z68oUZuuR54lBkXUMX0Vtw+kHT+R1LQ9DmZ+MuKgYHL5epl2jjwIZ8V9gxYoVWDw/Br+WaFeXo7iATQs/xHK2fdvpB6oVuPnz11i14QdcuFM1X9679xCalGlkv7t3kZ2Zih+iJiOkQ0/MOpqr2hGKS5/j5R6v4rPfZejU/wUEu2biq/G98eycX1Cg3qOGFKci+uUO6Dg8CqmSdug7+EU821qBowtfQKc+8/Gz5vQWUIiET6djyRFr+HXUNL1Mu8hPjkNUzGH1Um2pnS4UuH7kS6z86ph2uXYorn6OQf6jsDlTk/kN8nPhXswesxA/23TD4EF90c7pep3UAB6efxWqO75PIsUnplFLkSdNOlSkXfMYKT1L8zpKqf0Hv1OpdtUTzz9RZp6/jOKf3yZvaSAtSS/TruF50lBcX0G9pB408SdjOa6IDrzWmEQtO5KvvQ+980uxdr2G0rPzyN+zA/k1EFPgknS2pphOTGtJIs9JZDplmtjv4S80vb2IbJ9dTdcVxfTz294kbBxOO+9pt7NjUxZ0Jol8KH3zULvKYoopcU4HksmDKeKU4SCPkiMpyF5EbWeeZHtZQNkF2jpvHn1zTv8oBV1f0YukHhO1y7WhtroopqOTm5HI+23tcu1Q2b6jtD198HvVzK+4tZr6SN1owo9/Qd3k4fmH8jff8S1B4kcD0DlkAX6pfEfDDBQZGzEuqAuGrUqD5p6JAle+HIPuwa8hNkOB3J1volvfeeotQC5OrQpHYAtn2IpEcHDzx9CIeNwqy0LshFFYd6EY6TEjEBi+AexQQHkbR5aEIaCpPUQ2Eji37Iep35xHkXasnW8GYcTSTVg89Gm4yoQQO/kgZOYeZFZzYZ2zfSKCwmZh9out4GTrBL/phznOwcg9hVXhgWjhbAuRyAFu/kMREX8LSqURme9sx8SgMMya/SJaOdnCyW86Dt/ciTe79cW8YxrllmXux4JXAuAuF0ModUabFz7A3nKByzKxf8ErCHCXQyyUwrnNC/hgbybTKBPDQI/Malf3YM5gPzSqJ4SN1AWtQqZi87lC7VYzdMMx79xTqxAe2ALOtiKIHNzgPzQC8beqvxdfmPo1JvVuAUeJGPLmz2LmxhUYHzQWX/+phDJ7CyYEDsBHiToHKzv7KYYEararUN4+giVhAWhqL4KNxBkt+03FN+crrFAJM+ZXchV75gyGX6N6ENpI4dIqBFM3n0O5hiqj0m/Qq5H4Ym5/eDuKIZZ7ImhcNE5r73yZM4fC1I2Y/Iw3nCTMt5v1wawfs6F/r9e0zYxgykaKDGwcF4Quw1YhTXuzUnHlS4zpHozXYjM458OCoaqvMlFM26Ga+NW6hTL7KD4J7wEfF1sIrW0gqe+N3m/E4nyxamsOtk8MQtis2XixlRNsnfwwXXXCynD5pWpeI5Zi0+KheNpVBqHYCT4hM7GnuqCHErePLEFYQFPYi5hMzi3Rb+o3qNa1jGDl1AcDu97G3h2nWbYspwyp27/Dw2dfgJ9QoF1XB9h1QJC/E0oyryKzzBoeQxdg7ZppeK7iiTIRPHw8IS0pQAFHvi5J/AgDOodgQeXEXvA9Vq9LQePREXg3wE67UoPE901ELn4bw3zFKFZmY8uEQAz4KFE377Kz+HRIIMZ+/admme1z9JNw9GgdhNERH2KEX0N4934DsRqjV4ErzqvPO7XTRWXMiefqZFFmxWLCqHW4UJyOmBGBCN+giTdVfi47swwvPb8EiSW3sXNSN3R9cydycw1rgKlcqdInt845ahYPzz8BbQP8N1FK5za+S2OnbKAzlS5ezbvjW0An53Skeo7P0qo/yqjs8lp63tmOOs39lR6xrXejQ0jiEq7es/TX96idbUsKjz5ESam/08FPBpObqAmN23+Lzu6KoMEeQmo6cC5F70qm+0yulCXBJHfsSONX76eTScdpx8KB5ClrThP231eNTNEhEpLU86RnZm2kI4knaU9ECDUSNqTRu/PU5zNEQbdW9yGRlYx8x2+khIRttPVYFsc5SunX99qRbctwij6URKm/H6RPBruRqMk42p+fV0Xme6orfZEVyXzH08aEBNq29RhlZ0dTiMSFwnczbRQn0YKAeuTgN47W/JhIpw9F05h2tiTvF0VXyoopaUEA1XPwo3FrfqTE04coegw7t7wfRV0pM9AjFSTQjHYycnh6LK3cd5xOxm+gqYHOJPIYQ7uyFWwHLt1w6Lb0V3qPydUyPJoOJaXS7wc/ocFuImoybj/lqwWoRP5hmuIjJqcukynm8Ak6/OVUCmxsSxKR5m6nsbtqBndDS1NoSbCcHDuOp9X7T1LS8R20cKAnyZpPILUZqsA1vwJKmNGOZA5P09iV++j4yXjaMDWQnEUeNGZXNvOEqqj0KxZJ6Cmm089/PE5HN8+iXq5CcvvfLlLdYOKcQ/4hestbTE91f4e+PnKCjsTOoJ6uNiQQardz2qwyXP7Phjw5hzrWc6RnV/1BZWWXae3zzmTXaS79ylyNcz7GfLXYtB2qj1+VV9ylrWGuJGkxjFYcTKSUFGaTjweTh1BOgzeyMypu0eo+IrKS+dL4jQmUsG0rHasyb+45q+NAUo88n5lFG48k0sk9ERTSSEgNR+9Wb69MacoSCpY7Usfxq2n/ySQ6vmMhDfSUUfMJ+1mOMW5XHZo7vpLuS+j45yEk93mHKm76lp6m95/2pkkHv6PxTSR1dse3OGMzhbnZkHzwV3TbiFsobh2kKX529NSAL+iaMbfRo/TcRnp37BTaUCmxF5+cQa2FzjRyZ4F2TTUortOKXlLymPgT04SW4p/pbW+pdr7MHlvDyFXSgoatOEiJKSnMHh+rc6J88EbmZ5Xu+HLFuYV5xxJdqHSuf8eXOyeZkCXvLO2KUPl2Uxo4N5p2Jd+vyM+KWyfo209HURuRM/WZ8Tl9ceA8Fd3VqwEcuZJb59wxwsPzT+Bvf9Sh4PIvtO/IeXpQKXmoG18bKxJKZCSTVfo4vkgby/vLR6fpwy725NxvGr3Tqz45dFtISdqo1W/YHsWFkZNdEEX8/kDTfJRl0A9ro2h3Khuo8mMDRfH0uruEukReIJYOtNyl2BedyH5ADGWrmx8xiYKX0dVyuYuP0ORmEuoUcU67Qh9N4yuW9KGoG9oDOM/xiOLCnMguKIJ+1yqnLOMHWhu1m1QiV5ZZ3UyIJdQn6oauudJLesVHJlMzcXt6/7Tu68D8nyJo+NhVdOqhSnYxtX//NEvRWvJ/oojhY2nVqSIDPeZte5XqS7tS5Hmd1IqsDTRALqPeK6+xc3Pohmvej+IozMmOgiJ+1/pEGWX8sJaidqdSucn1yd8xkpwlTJ4L5aMp6Nrn/cjOzMa3KP51cpd00TuecTeWXnSypwEx2doV+nDML28bvVpfSl0jz+vmp8iiDQPkJOu90miRVDeK4s60KE03h6z1oSS3f4G+YB0I1xzy4kaQszSYPlEVLzUKurH2ObLX6oDbZpXg9E0Vj+j0h13I3rkfTXunF9V36EYLtYHHOR8jvsplB5Pxq7hNpzYvp5ijehcWxcdoSguNTcrUja+YJH2iqDz8qmDGnNXzEgXTMp3h6QhraCSdIrTL+hRR/OvuJOkSSYZTepGc7AeQyrXMa3w/pvTMNRTioHvcofTUTGrfgjWuDw5WaXxtrIQkqZwv2cfxxY3a+NHsJ5Q2pY69elEv7adH1/bUpJ41SZu9RNFpVeVR3NxLb/rak0OHKbTvZnVK1KPgMv2y7widr5TYH+0dSw2FrWj6Sf3HEozA2YQp6PapzbQ85ijprmGK6diUFmp7nCszbHw549yCvGOxLphcFjW+HLJUftRBPz8rslbRM1K9G0Z6NYArV3Lq3Ky8wMPz5PM3P+pQhssb38RLU79BhvYrSwOsGmLIZ9/jp59+MvwcXIh+Mu0+ko6YvnYWfE4sxae/t8F7a97F02LtNj0kvUZhpNtvmO3fCE18+2LkzJ3ICxiK/m10bzCXo8hKRsrNMlxYMwS+bduirfrTA/MSCvHoUhrS1d8DCSD3ag7Xcg1aySG3E6CspPrvvQSO7nDXvgLMfQ4Jeo0aCbffZsO/URP49h2JmTvzEDC0P4yIrEHgCHd3JyNvLCqRk3YONxw6IKCNSLsOsO39PmLXvwH/gjScu+GADgFtULHVtjfej12PNwL0lVmGKykXUNC0K4K8dG+hW7kEI7C1AhfPnkOpek31uuGct1UvjBrpht9m+6NRE1/0HTkTO/MCMLR/GxixFK6lXcBD1w7o7FEujxUaB3dHS7NeYFYgKzkFN8suYM0QX60s7NNjHhIKH+FSWrre18v6VD+/sispuFDQFF2DvFChISsXBAe2huLiWZzTKKgK1p7B6NlcNweXLgFoXnIBqZeMvfikTxkyUs8jr7Ef/JvqHd+tC1qodWCuzXSY5/8SdJy+FrN8TmDpp7+jzXtr8K5e4HHOx8BXue1gZSp+mX4DXhkJ/9w4RM6YiFFD+sC/9UBEpSugVCq1j3wI4OjuXu0b+ObNmY0i90JzneEhl9tBUGbESxRZSE65ibILazDEt3y8tugxLwGFjy4hrXxAMxA0fAEDu9zCd3Gqr6BLcHr7d3j07BB0M/LXD6waDsFn31fKl+xzcGE/lKdMNTJPdOn3HJ4LeQb+rg+RdvpPNBq/DWlnt+G11pUTaA52ThuPL5Th2HLgEzxfMf/qKbu8EW++NBXfVErsAlsZpGwORbX+bpz5VMArGOmfi7jIGZg4agj6+LfGwKh0KJjNlQbvdJoR5xJz847lurAYs2WxhNrmSvNjhIfnSecxRK0F5CXimz0X4NSBFUWjwSeCs3cndOnSxfAT4ANnPckVjx6hSAFQ8UPcf1hN9Dn2w2cnknCANcahnvk4sX46Xgrww9ANV1hKqERxMUvN9ugYNg0zZsyo+MxZGo2YyJfRTC2rANbWukZCDcfjdgK2v035Pmacw7HfZziRdABr3g2FZ/4JrJ/+EgL8hmLDlWqeKRRYw7riBIaUlrFjbKxh9JHA0jKmAxtYm/G8YImCNS42QsM/rcTOa8NWKJWKiiajWt1wztsR/T47gaQDrJEK9UT+ifWY/lIA/IZugPFpEwTs5NZ6ogtkrLgaTKXSXzZQNUPaVcXFzF/sOyJsmk6WGTPmYGl0DCJfblbpT0iVY2J+JQrWatpAaKggZhe1gqCoJEo5AokUUv1otGZzYnKzQ7RUP4cyBVOMlY2BrAKJBGKtTObZTA+z/J+heIRHmsDDw/sP2TE6OOdTyVc57WAqfpVZ2DbGH/4vf4i45ByIvYIxev5cDHXTF0BlM5sKM1XBzDmrYtjQ8tWNWAzNlMIwTW+8GXOWIjomEi9XKNEMBK54YVBn3N67A4n5idi2twTPvtgNRq7vWcp0hnenSvmSfQJ8yv/agQaBfXu8OGUapk1/H0s2H8H+ee3wxxr2759uVf0rMcW/4vvDD9B94vvo66I/SnXkIfGbPbjgxC60KyV2Yau28BbeQFrqHSN/jUaBjLgFmPXZ97imjXVD31Q1tOVrlMjaNgb+/i/jw7hk5Ii9EDx6Pv6/vTMPiurK4vCv9wWBFtMiAVs2BRVhMJUYJ3Edg0QZxS1aQUomTFIS0Vg1TsRxAjKEzqLBMDoxcYmaYJULsYwJqCWOEWNkgpaAjYKCacFGUFZpEBqaM68XpVns16hRkuqv6v3R9zXvnXPuOefe+/qdS8ICRa+DGnuc25h3bLJFOxorrkBd201DjqWvPDiemczfxxxoK7bkSis2tzUv2LHTz7Eli/061P8E5exwfHpnPj6JD4WDubnPaM8gaekGqF+KQ9zEG0iNSUR2o/ncfTpQk7sXqemVGBudiK2HzqJEU4CUSVpkpmWgsoPTZfjiuXlBIW1Cs/N4vB4ZiUjjEYHpwT7wC/R99D0sGVjvgRrk7k1FeuVYRCduxaGzJdAUpGCSNhNpGZXMFbrKbB0uBnkq4FRbgmKLIrH2y9sRE5GATJ0CCqdalBRbDHrtl7E9JgIJ3980NxjgY5iXAvwbKqjqLJJ6cwEuXgU8PL0gMDc9CDa9ZXW52Juajsqx0UjceghnSzQoSJkEbWYaMnoUuPEw1M8X0puXUFjdea6lqLhzgDBMVEiH1rud6VxXWQnT13lwY/SRNjXDefzrZlmYI2I6gn38EOjb29Nz6/CHMfrxb0Clquu0JZpRYDIQvB5gIH1ZEYq05g8MWpUK13je8DM8trWqA9Mnw70gMtjAYqBtLb6C68aHq33vM9v8X4szSUuxQf0S4uIm4kZqDBItAs+qPj1g6wcZ6qzEb0XZAXy2rxpTU3Nx7thebNsQj9gwV7TdYfTtXDlY5bHHPM8NXgopmpqdMf71e9eLRMT0YPj4BcK3Txfkwu3P4RhXlYH92/cioy0E8/7Y67T3IRmA51fvwvppNdgeFYnNRd1+ZeANxbSYfyB6gi17nNfjJ+VshH96B/M/iUdot8TOlb+KOZNEOJu2G4WWKyUDrXnYqUzG5u+vMpMvxud5BF3r3c6JmK4SlffivOMGDny2D9VTU5F77hj2btuA+NgwuLbdMUzVLGLPAHucMwOEbXnHFlu0ZmPNS0FYsrvcLAehubkFnAFOxk/W45lRjU2WLhNoW7EhV7LY/EmMi3bsPAmejqvq1dj1xnwkV8zAl8e2YaGi29Oz+7Sh4UYRCgsLux2XcLncUCLeiFMJS5GqmYLkLUlI2pKMKTc3IybhJLpuBckFp/QQkmNXICmzDIaa3/Y7GpTX6OCiUMCZJ4RISNDW1zNrdQbnUCyeI8e5jcugPKFhvq/H7ZwURIVMRvj7px9tD8t7sN2Dy0HpoWTErkhCZplRYtzRlKNG5wKFwplJft1kZkE6ZRHCh+Rg0xpmwGlkBobGQuxel4xd5xvh7P4nLAofgpxNa7C7sJGZKzSicPc6JO86j0bngeYrmBgUthgzpVlQxm5Fbi1z5+ZSHFydgANNL2LRfD8mdbLAovddTikOJcdiRVImTGrfgaa8BjoXZnLu3NNdHUOXYMHg01j/zjZcqNejtSwT69btQ4U5mXNlwzBsYDVO7j8MNXO91rKjSEo5ggZzZncOXYw58nPYuEyJExrmC/rbyEmJQsjkcLx/+iF6elAYFs+UIksZi625tUzfNKP04GokHGjCi4vmw+8BBqK676FcfQBXmvVoKt6HVYnfghMaiXBXLqsOA2dEYd7A/+LDd75EfoMeLde/wz/X7cdN8/jW5z6zwf8bTyVgaaoGU5K3IClpC5Kn3MTmmAScNAeeNX16w3o/3LUev0IB+BwdbqvVqGd01tecx44VifiunrFVq42/qT/2mHdG6OI5kJ/biGXKEzCplIOUqBBMDn8ffXUtrtsshI+rwO7ENLRNn4vxD5r3tjXgRlH3fMkcly6jvKFzwtMDnheiUj/ATP4PSIj9DF3mvu0cSOVyCNrYhNZDvesNzE+uwIwvj2HbQkVP3+IOxeKElQgoTMb8xRtw9AqTb5jmVs2P2PyXCGwo8sfb8VHwFMgwbNhAVJ/cj8Mmp8fRpBQcuef0zIJOwOdAd1sNtanTcX7HCiSaOr3HLgNscc61Ne/YYgvBSASNFOJC+k7kMrLpNEfxTfYtDPrDc8bTbPHMJgtHKIKQtKivtyXzd8KWKw2vbFm1uS0x0l6MI1u/QPq5WuOf2LHTLzG/6/tEab+spHFiBb15xLJetok0xVepqslULGAqbjMuPHs5OOQwdw/VHV9O/mJXmrX9mvll+3Yq/WIGPSPyp+VZndWuRtpKaE90IMmYJa3Y0YkkAgHJX4ildLXhL+/SyZUjSMQTkeOYVZTdSqSvziZlmDc5cLkkFIuIzxGTx7R4yjKWOxsKnCTkFp1h3D3CSFsexQdLKDg+z9xgiam4TeLxFh21qBuxfg+DyHsoOlBGPJ6YHJ0kJBDI6YXYdDKK3E3mH8oM+zd60FuWN7Cs6GVkqD39Ac30lBBPKGX055LEcyZ9dMZUjauvPU0fzPQkCU9IUomAuBJPmvnRGWP1eRc7GnTJSqAQhYQ4jFxSEZ/E7hNp5Te/mAoDbbCNdb3bqGRPNAXKeMQTO5ITI4tA/gLFpqstCiq6UvfTxxTmKSauQEhCwSB6PmwCuYvNBRvUSqrP55K3hEt8sZTEUk8Ke+9tetnh3nk9VWcrKczbgbhcIYkZfThiD5oWn9VrZbtN+lVmUUKIgiQcxtekjH5id5q48hv6pWuB+32M9h04jmZMdGPkF5KAKyL3yXGUUXFPABt0+CGRXvEw2UDA2ODFJXMoQNp53nqf9cRqH9Udp+X+YnKdtZ2umTvFuKPKMyLyX57Fqo9pr9FuvsrWD9biV19DWWvGkQufkdVhAImFLhQUoaS4UBnJZu+kqjZDcZuEPN462lm00wts8WjQS+IWTRmdHU958cEkCY43f+6GvpqylWHk7cAlrlBMIj6HxB7TKD6ritGWOW1jcVup0cZ6KvvPK+TA96JlJ8wCtPRS3NZrvmQOjgPN3WPYScHa7g/t9MuO2TSYP5Cm/duigOnW5zRdJKDxH159YAwaab9MynFiUrx5pMtOCE2aYrpa1WTU2YSeKrKSaM4oGQmYGBENcCAh06+OPq/S2u+u379Hq+pzmustIS6f8VnG7z3D3qO3X3a4X9xWk7WGxrnwGds60ACxkFyCIkgZF0oy2WzaWdXWbR9ftji3Me/YaAvtz+tpuruQiUcxiQU8chq1hL4uuRdtbPHMIsvdk7RyhIh4Ikcasyq7S362VtxmwHquZLM5c32WGKHGXTSLsc9z6wpMn+3Y6Yc8lX9ZrPs5DsETDyLkuAobJ5jLqbTfImr4a1DFnMe5+ABT22OnA1pNIS6W1oMrH8Gsyl1xvz6koxHqC/ko73BH4HNeMC3y9WhQF0BVpoXIfTQCfVw6i78eGyz36NBCU3gRpfVcyEcEYaSrRUVLrzKz0F6L0rxCZpU/GP7BfpB3uVk7akvzUFihx2D/YPh1PdkV5joleZdQhSHwD/TFoD4bxrreHVoNCi+Wop4rx4igkbBUu1d0t1B04Sq0gwMQUPEvBL3yP/z14in83cf0zEl3uxgXiuvgODwYo1x7eVymb4C6QIUyrQjuowPh49JnhbrB2LIkD5eqgCH+gfC1YqCaba9iaII70ks+RUBxAW6KvBE0akinb5ph1aGlCpfzS9AkH42x3rKeP+f0uc8ezv9t1adXrPaDlfhlzjVez0f+9RbIfIMQ8KzU3N5XHn/M6xvUKFCVQStyx+hAHzyya/VXdD8jLngiDoYch2rjBLPdtPg2ajheU8XgfE48Arq86dKK21cuovhmM3iDfDBmlDsGdHda3W0UXyhGneNwBI9y7fFec0fjdeTnX0eLzBdBAc92LeDrDZY473PesUZLJQqZnFQvUSAgcFiP/MwWz9Zk6WhU40J+OTrcA/G8l7O51UZYciWbzX+NGLFj50nyVCa+aD6FlcEhSBvyLtK+WosQuQaH4xYicgcfcTk/Yu0Y+1vydh4e3Zm/YUz3ZN6PuT9RvLYdMx5loO0n/N70sWMrzTi1MhghaUPwbtpXWBsih+ZwHBZG7gA/Lgc/rh0De2bvX/zWcqUdO48DW54RPn6kk5CUth5Tb21CmLcTxLLhWPB1G+Zt3oFV9kmvnUeFwwWPx324GpCnAMcgL5fzm5GXjd+bPnZsRYpJSWlYP/UWNoV5w0ksw/AFX6Nt3mbsWGWf9PZLfmO50o6dRwf4P/7dVZhWxP1bAAAAAElFTkSuQmCC;" vertex="1" parent="1">
          <mxGeometry x="450" y="30" width="702" height="112" as="geometry" />
        </mxCell>
        <mxCell id="Rllp9C1GU7QNVUocK1dj-3" value="AUTOR" style="whiteSpace=wrap;html=1;align=center;" vertex="1" parent="1">
          <mxGeometry x="740" y="210" width="100" height="40" as="geometry" />
        </mxCell>
        <mxCell id="Rllp9C1GU7QNVUocK1dj-4" value="LIBRO" style="whiteSpace=wrap;html=1;align=center;" vertex="1" parent="1">
          <mxGeometry x="740" y="360" width="100" height="40" as="geometry" />
        </mxCell>
        <mxCell id="Rllp9C1GU7QNVUocK1dj-5" value="STOCK" style="whiteSpace=wrap;html=1;align=center;" vertex="1" parent="1">
          <mxGeometry x="1000" y="360" width="100" height="40" as="geometry" />
        </mxCell>
        <mxCell id="Rllp9C1GU7QNVUocK1dj-6" value="SAGA" style="whiteSpace=wrap;html=1;align=center;" vertex="1" parent="1">
          <mxGeometry x="390" y="360" width="100" height="40" as="geometry" />
        </mxCell>
        <mxCell id="Rllp9C1GU7QNVUocK1dj-7" value="SOCIO" style="whiteSpace=wrap;html=1;align=center;" vertex="1" parent="1">
          <mxGeometry x="1000" y="640" width="100" height="40" as="geometry" />
        </mxCell>
        <mxCell id="Rllp9C1GU7QNVUocK1dj-8" value="ALQUILER" style="shape=ext;margin=3;double=1;whiteSpace=wrap;html=1;align=center;" vertex="1" parent="1">
          <mxGeometry x="1000" y="480" width="100" height="40" as="geometry" />
        </mxCell>
        <mxCell id="Rllp9C1GU7QNVUocK1dj-9" value="Escribe" style="shape=rhombus;perimeter=rhombusPerimeter;whiteSpace=wrap;html=1;align=center;" vertex="1" parent="1">
          <mxGeometry x="735" y="280" width="110" height="50" as="geometry" />
        </mxCell>
        <mxCell id="Rllp9C1GU7QNVUocK1dj-10" value="Tiene" style="shape=rhombus;perimeter=rhombusPerimeter;whiteSpace=wrap;html=1;align=center;" vertex="1" parent="1">
          <mxGeometry x="880" y="360" width="90" height="40" as="geometry" />
        </mxCell>
        <mxCell id="Rllp9C1GU7QNVUocK1dj-11" value="Pertenece a una" style="shape=rhombus;perimeter=rhombusPerimeter;whiteSpace=wrap;html=1;align=center;" vertex="1" parent="1">
          <mxGeometry x="550" y="355" width="110" height="50" as="geometry" />
        </mxCell>
        <mxCell id="Rllp9C1GU7QNVUocK1dj-13" value="Realiza" style="shape=rhombus;double=1;perimeter=rhombusPerimeter;whiteSpace=wrap;html=1;align=center;" vertex="1" parent="1">
          <mxGeometry x="1010" y="564.5" width="80" height="40" as="geometry" />
        </mxCell>
        <mxCell id="Rllp9C1GU7QNVUocK1dj-14" value="Nombre" style="ellipse;whiteSpace=wrap;html=1;align=center;" vertex="1" parent="1">
          <mxGeometry x="875" y="170" width="75" height="20" as="geometry" />
        </mxCell>
        <mxCell id="Rllp9C1GU7QNVUocK1dj-15" value="Apellido" style="ellipse;whiteSpace=wrap;html=1;align=center;" vertex="1" parent="1">
          <mxGeometry x="760" y="150" width="80" height="30" as="geometry" />
        </mxCell>
        <mxCell id="Rllp9C1GU7QNVUocK1dj-16" value="ID_autor" style="ellipse;whiteSpace=wrap;html=1;align=center;" vertex="1" parent="1">
          <mxGeometry x="645" y="170" width="90" height="30" as="geometry" />
        </mxCell>
        <mxCell id="Rllp9C1GU7QNVUocK1dj-17" value="" style="endArrow=none;html=1;rounded=0;exitX=1;exitY=1;exitDx=0;exitDy=0;entryX=0;entryY=0;entryDx=0;entryDy=0;" edge="1" parent="1" source="Rllp9C1GU7QNVUocK1dj-16" target="Rllp9C1GU7QNVUocK1dj-3">
          <mxGeometry relative="1" as="geometry">
            <mxPoint x="680" y="170" as="sourcePoint" />
            <mxPoint x="840" y="170" as="targetPoint" />
          </mxGeometry>
        </mxCell>
        <mxCell id="Rllp9C1GU7QNVUocK1dj-18" value="" style="endArrow=none;html=1;rounded=0;exitX=0;exitY=1;exitDx=0;exitDy=0;entryX=0.25;entryY=0;entryDx=0;entryDy=0;" edge="1" parent="1" source="Rllp9C1GU7QNVUocK1dj-15" target="Rllp9C1GU7QNVUocK1dj-3">
          <mxGeometry relative="1" as="geometry">
            <mxPoint x="680" y="170" as="sourcePoint" />
            <mxPoint x="840" y="170" as="targetPoint" />
          </mxGeometry>
        </mxCell>
        <mxCell id="Rllp9C1GU7QNVUocK1dj-19" value="" style="endArrow=none;html=1;rounded=0;exitX=0;exitY=1;exitDx=0;exitDy=0;entryX=1;entryY=0;entryDx=0;entryDy=0;" edge="1" parent="1" source="Rllp9C1GU7QNVUocK1dj-14" target="Rllp9C1GU7QNVUocK1dj-3">
          <mxGeometry relative="1" as="geometry">
            <mxPoint x="680" y="170" as="sourcePoint" />
            <mxPoint x="840" y="170" as="targetPoint" />
          </mxGeometry>
        </mxCell>
        <mxCell id="Rllp9C1GU7QNVUocK1dj-20" value="Titulo&amp;nbsp;" style="ellipse;whiteSpace=wrap;html=1;align=center;" vertex="1" parent="1">
          <mxGeometry x="330" y="440" width="90" height="30" as="geometry" />
        </mxCell>
        <mxCell id="Rllp9C1GU7QNVUocK1dj-22" value="" style="endArrow=none;html=1;rounded=0;exitX=0.25;exitY=1;exitDx=0;exitDy=0;entryX=0.5;entryY=0;entryDx=0;entryDy=0;" edge="1" parent="1" source="Rllp9C1GU7QNVUocK1dj-6" target="Rllp9C1GU7QNVUocK1dj-20">
          <mxGeometry relative="1" as="geometry">
            <mxPoint x="680" y="270" as="sourcePoint" />
            <mxPoint x="840" y="270" as="targetPoint" />
          </mxGeometry>
        </mxCell>
        <mxCell id="Rllp9C1GU7QNVUocK1dj-24" value="ID_saga" style="ellipse;whiteSpace=wrap;html=1;align=center;" vertex="1" parent="1">
          <mxGeometry x="260" y="350" width="100" height="40" as="geometry" />
        </mxCell>
        <mxCell id="Rllp9C1GU7QNVUocK1dj-25" value="" style="endArrow=none;html=1;rounded=0;exitX=1;exitY=0.5;exitDx=0;exitDy=0;entryX=0;entryY=0.5;entryDx=0;entryDy=0;" edge="1" parent="1" source="Rllp9C1GU7QNVUocK1dj-24" target="Rllp9C1GU7QNVUocK1dj-6">
          <mxGeometry relative="1" as="geometry">
            <mxPoint x="610" y="270" as="sourcePoint" />
            <mxPoint x="770" y="270" as="targetPoint" />
          </mxGeometry>
        </mxCell>
        <mxCell id="Rllp9C1GU7QNVUocK1dj-26" value="" style="endArrow=none;html=1;rounded=0;entryX=1;entryY=0.5;entryDx=0;entryDy=0;exitX=0;exitY=0.5;exitDx=0;exitDy=0;" edge="1" parent="1" source="Rllp9C1GU7QNVUocK1dj-11" target="Rllp9C1GU7QNVUocK1dj-6">
          <mxGeometry relative="1" as="geometry">
            <mxPoint x="610" y="270" as="sourcePoint" />
            <mxPoint x="770" y="270" as="targetPoint" />
          </mxGeometry>
        </mxCell>
        <mxCell id="Rllp9C1GU7QNVUocK1dj-27" value="(1,1)" style="resizable=0;html=1;whiteSpace=wrap;align=right;verticalAlign=bottom;" connectable="0" vertex="1" parent="Rllp9C1GU7QNVUocK1dj-26">
          <mxGeometry x="1" relative="1" as="geometry">
            <mxPoint x="30" as="offset" />
          </mxGeometry>
        </mxCell>
        <mxCell id="Rllp9C1GU7QNVUocK1dj-28" value="" style="endArrow=none;html=1;rounded=0;entryX=0;entryY=0.5;entryDx=0;entryDy=0;exitX=1;exitY=0.5;exitDx=0;exitDy=0;" edge="1" parent="1" source="Rllp9C1GU7QNVUocK1dj-11" target="Rllp9C1GU7QNVUocK1dj-4">
          <mxGeometry relative="1" as="geometry">
            <mxPoint x="580" y="300" as="sourcePoint" />
            <mxPoint x="740" y="300" as="targetPoint" />
          </mxGeometry>
        </mxCell>
        <mxCell id="Rllp9C1GU7QNVUocK1dj-29" value="(1,M)" style="resizable=0;html=1;whiteSpace=wrap;align=right;verticalAlign=bottom;" connectable="0" vertex="1" parent="Rllp9C1GU7QNVUocK1dj-28">
          <mxGeometry x="1" relative="1" as="geometry" />
        </mxCell>
        <mxCell id="Rllp9C1GU7QNVUocK1dj-31" value="" style="endArrow=none;html=1;rounded=0;entryX=0.5;entryY=1;entryDx=0;entryDy=0;exitX=0.5;exitY=0;exitDx=0;exitDy=0;" edge="1" parent="1" source="Rllp9C1GU7QNVUocK1dj-9" target="Rllp9C1GU7QNVUocK1dj-3">
          <mxGeometry relative="1" as="geometry">
            <mxPoint x="580" y="300" as="sourcePoint" />
            <mxPoint x="740" y="300" as="targetPoint" />
          </mxGeometry>
        </mxCell>
        <mxCell id="Rllp9C1GU7QNVUocK1dj-32" value="(1,1)" style="resizable=0;html=1;whiteSpace=wrap;align=right;verticalAlign=bottom;" connectable="0" vertex="1" parent="Rllp9C1GU7QNVUocK1dj-31">
          <mxGeometry x="1" relative="1" as="geometry">
            <mxPoint y="20" as="offset" />
          </mxGeometry>
        </mxCell>
        <mxCell id="Rllp9C1GU7QNVUocK1dj-36" value="" style="endArrow=none;html=1;rounded=0;exitX=0.5;exitY=1;exitDx=0;exitDy=0;entryX=0.5;entryY=0;entryDx=0;entryDy=0;" edge="1" parent="1" source="Rllp9C1GU7QNVUocK1dj-9" target="Rllp9C1GU7QNVUocK1dj-4">
          <mxGeometry relative="1" as="geometry">
            <mxPoint x="640" y="360" as="sourcePoint" />
            <mxPoint x="800" y="360" as="targetPoint" />
          </mxGeometry>
        </mxCell>
        <mxCell id="Rllp9C1GU7QNVUocK1dj-37" value="(1,M)" style="resizable=0;html=1;whiteSpace=wrap;align=right;verticalAlign=bottom;" connectable="0" vertex="1" parent="Rllp9C1GU7QNVUocK1dj-36">
          <mxGeometry x="1" relative="1" as="geometry" />
        </mxCell>
        <mxCell id="Rllp9C1GU7QNVUocK1dj-38" value="Protagonista" style="ellipse;whiteSpace=wrap;html=1;align=center;" vertex="1" parent="1">
          <mxGeometry x="635" y="440" width="85" height="30" as="geometry" />
        </mxCell>
        <mxCell id="Rllp9C1GU7QNVUocK1dj-39" value="Titulo" style="ellipse;whiteSpace=wrap;html=1;align=center;" vertex="1" parent="1">
          <mxGeometry x="727" y="460" width="73" height="30" as="geometry" />
        </mxCell>
        <mxCell id="Rllp9C1GU7QNVUocK1dj-40" value="" style="endArrow=none;html=1;rounded=0;entryX=1;entryY=0.5;entryDx=0;entryDy=0;exitX=0;exitY=0.5;exitDx=0;exitDy=0;" edge="1" parent="1" source="Rllp9C1GU7QNVUocK1dj-10" target="Rllp9C1GU7QNVUocK1dj-4">
          <mxGeometry relative="1" as="geometry">
            <mxPoint x="730" y="400" as="sourcePoint" />
            <mxPoint x="890" y="400" as="targetPoint" />
          </mxGeometry>
        </mxCell>
        <mxCell id="Rllp9C1GU7QNVUocK1dj-41" value="(1,1)" style="resizable=0;html=1;whiteSpace=wrap;align=right;verticalAlign=bottom;" connectable="0" vertex="1" parent="Rllp9C1GU7QNVUocK1dj-40">
          <mxGeometry x="1" relative="1" as="geometry">
            <mxPoint x="30" as="offset" />
          </mxGeometry>
        </mxCell>
        <mxCell id="Rllp9C1GU7QNVUocK1dj-42" value="" style="endArrow=none;html=1;rounded=0;entryX=0;entryY=0.5;entryDx=0;entryDy=0;exitX=1;exitY=0.5;exitDx=0;exitDy=0;" edge="1" parent="1" source="Rllp9C1GU7QNVUocK1dj-10" target="Rllp9C1GU7QNVUocK1dj-5">
          <mxGeometry relative="1" as="geometry">
            <mxPoint x="770" y="370" as="sourcePoint" />
            <mxPoint x="930" y="370" as="targetPoint" />
          </mxGeometry>
        </mxCell>
        <mxCell id="Rllp9C1GU7QNVUocK1dj-43" value="(0,M)" style="resizable=0;html=1;whiteSpace=wrap;align=right;verticalAlign=bottom;" connectable="0" vertex="1" parent="Rllp9C1GU7QNVUocK1dj-42">
          <mxGeometry x="1" relative="1" as="geometry" />
        </mxCell>
        <mxCell id="Rllp9C1GU7QNVUocK1dj-44" value="Email" style="ellipse;whiteSpace=wrap;html=1;align=center;" vertex="1" parent="1">
          <mxGeometry x="930" y="710" width="70" height="30" as="geometry" />
        </mxCell>
        <mxCell id="Rllp9C1GU7QNVUocK1dj-45" value="Nombre" style="ellipse;whiteSpace=wrap;html=1;align=center;" vertex="1" parent="1">
          <mxGeometry x="1015" y="720" width="70" height="30" as="geometry" />
        </mxCell>
        <mxCell id="Rllp9C1GU7QNVUocK1dj-47" value="Apellido" style="ellipse;whiteSpace=wrap;html=1;align=center;" vertex="1" parent="1">
          <mxGeometry x="880" y="670" width="70" height="30" as="geometry" />
        </mxCell>
        <mxCell id="Rllp9C1GU7QNVUocK1dj-48" value="" style="endArrow=none;html=1;rounded=0;exitX=1;exitY=0.5;exitDx=0;exitDy=0;entryX=0;entryY=0.5;entryDx=0;entryDy=0;" edge="1" parent="1" source="Rllp9C1GU7QNVUocK1dj-47" target="Rllp9C1GU7QNVUocK1dj-7">
          <mxGeometry relative="1" as="geometry">
            <mxPoint x="750" y="720" as="sourcePoint" />
            <mxPoint x="910" y="720" as="targetPoint" />
          </mxGeometry>
        </mxCell>
        <mxCell id="Rllp9C1GU7QNVUocK1dj-49" value="" style="endArrow=none;html=1;rounded=0;exitX=0.5;exitY=0;exitDx=0;exitDy=0;entryX=0.25;entryY=1;entryDx=0;entryDy=0;" edge="1" parent="1" source="Rllp9C1GU7QNVUocK1dj-44" target="Rllp9C1GU7QNVUocK1dj-7">
          <mxGeometry relative="1" as="geometry">
            <mxPoint x="750" y="720" as="sourcePoint" />
            <mxPoint x="910" y="720" as="targetPoint" />
          </mxGeometry>
        </mxCell>
        <mxCell id="Rllp9C1GU7QNVUocK1dj-50" value="" style="endArrow=none;html=1;rounded=0;exitX=0.5;exitY=0;exitDx=0;exitDy=0;entryX=0.5;entryY=1;entryDx=0;entryDy=0;" edge="1" parent="1" source="Rllp9C1GU7QNVUocK1dj-45" target="Rllp9C1GU7QNVUocK1dj-7">
          <mxGeometry relative="1" as="geometry">
            <mxPoint x="750" y="720" as="sourcePoint" />
            <mxPoint x="910" y="720" as="targetPoint" />
          </mxGeometry>
        </mxCell>
        <mxCell id="Rllp9C1GU7QNVUocK1dj-52" value="" style="endArrow=none;html=1;rounded=0;entryX=0.5;entryY=0;entryDx=0;entryDy=0;exitX=0.5;exitY=1;exitDx=0;exitDy=0;" edge="1" parent="1" source="Rllp9C1GU7QNVUocK1dj-13" target="Rllp9C1GU7QNVUocK1dj-7">
          <mxGeometry relative="1" as="geometry">
            <mxPoint x="750" y="540" as="sourcePoint" />
            <mxPoint x="910" y="540" as="targetPoint" />
          </mxGeometry>
        </mxCell>
        <mxCell id="Rllp9C1GU7QNVUocK1dj-53" value="(1,1)" style="resizable=0;html=1;whiteSpace=wrap;align=right;verticalAlign=bottom;" connectable="0" vertex="1" parent="Rllp9C1GU7QNVUocK1dj-52">
          <mxGeometry x="1" relative="1" as="geometry" />
        </mxCell>
        <mxCell id="Rllp9C1GU7QNVUocK1dj-54" value="" style="endArrow=none;html=1;rounded=0;entryX=0.5;entryY=1;entryDx=0;entryDy=0;exitX=0.5;exitY=0;exitDx=0;exitDy=0;" edge="1" parent="1" source="Rllp9C1GU7QNVUocK1dj-13" target="Rllp9C1GU7QNVUocK1dj-8">
          <mxGeometry relative="1" as="geometry">
            <mxPoint x="830" y="570" as="sourcePoint" />
            <mxPoint x="990" y="570" as="targetPoint" />
          </mxGeometry>
        </mxCell>
        <mxCell id="Rllp9C1GU7QNVUocK1dj-55" value="(0,M)" style="resizable=0;html=1;whiteSpace=wrap;align=right;verticalAlign=bottom;" connectable="0" vertex="1" parent="Rllp9C1GU7QNVUocK1dj-54">
          <mxGeometry x="1" relative="1" as="geometry">
            <mxPoint y="20" as="offset" />
          </mxGeometry>
        </mxCell>
        <mxCell id="Rllp9C1GU7QNVUocK1dj-56" value="ID_stock" style="ellipse;whiteSpace=wrap;html=1;align=center;" vertex="1" parent="1">
          <mxGeometry x="1070" y="320" width="68" height="20" as="geometry" />
        </mxCell>
        <mxCell id="Rllp9C1GU7QNVUocK1dj-57" value="Cantidad_libros" style="ellipse;whiteSpace=wrap;html=1;align=center;" vertex="1" parent="1">
          <mxGeometry x="380" y="290" width="100" height="40" as="geometry" />
        </mxCell>
        <mxCell id="Rllp9C1GU7QNVUocK1dj-59" value="" style="endArrow=none;html=1;rounded=0;exitX=0.5;exitY=1;exitDx=0;exitDy=0;entryX=0.25;entryY=0;entryDx=0;entryDy=0;" edge="1" parent="1" source="Rllp9C1GU7QNVUocK1dj-57" target="Rllp9C1GU7QNVUocK1dj-6">
          <mxGeometry relative="1" as="geometry">
            <mxPoint x="560" y="180" as="sourcePoint" />
            <mxPoint x="720" y="180" as="targetPoint" />
          </mxGeometry>
        </mxCell>
        <mxCell id="Rllp9C1GU7QNVUocK1dj-60" value="Fecha_alq" style="ellipse;whiteSpace=wrap;html=1;align=center;" vertex="1" parent="1">
          <mxGeometry x="1120" y="470" width="78" height="30" as="geometry" />
        </mxCell>
        <mxCell id="Rllp9C1GU7QNVUocK1dj-61" value="Fecha_dev" style="ellipse;whiteSpace=wrap;html=1;align=center;" vertex="1" parent="1">
          <mxGeometry x="1120" y="520" width="80" height="30" as="geometry" />
        </mxCell>
        <mxCell id="Rllp9C1GU7QNVUocK1dj-62" value="" style="endArrow=none;html=1;rounded=0;exitX=1;exitY=0;exitDx=0;exitDy=0;entryX=0;entryY=0.5;entryDx=0;entryDy=0;" edge="1" parent="1" source="Rllp9C1GU7QNVUocK1dj-8" target="Rllp9C1GU7QNVUocK1dj-60">
          <mxGeometry relative="1" as="geometry">
            <mxPoint x="760" y="410" as="sourcePoint" />
            <mxPoint x="920" y="410" as="targetPoint" />
          </mxGeometry>
        </mxCell>
        <mxCell id="Rllp9C1GU7QNVUocK1dj-63" value="" style="endArrow=none;html=1;rounded=0;exitX=1;exitY=1;exitDx=0;exitDy=0;entryX=0;entryY=0.5;entryDx=0;entryDy=0;" edge="1" parent="1" source="Rllp9C1GU7QNVUocK1dj-8" target="Rllp9C1GU7QNVUocK1dj-61">
          <mxGeometry relative="1" as="geometry">
            <mxPoint x="760" y="410" as="sourcePoint" />
            <mxPoint x="920" y="410" as="targetPoint" />
          </mxGeometry>
        </mxCell>
        <mxCell id="Rllp9C1GU7QNVUocK1dj-64" value="" style="endArrow=none;html=1;rounded=0;exitX=0.5;exitY=0;exitDx=0;exitDy=0;entryX=0;entryY=1;entryDx=0;entryDy=0;" edge="1" parent="1" source="Rllp9C1GU7QNVUocK1dj-5" target="Rllp9C1GU7QNVUocK1dj-56">
          <mxGeometry relative="1" as="geometry">
            <mxPoint x="760" y="300" as="sourcePoint" />
            <mxPoint x="920" y="300" as="targetPoint" />
          </mxGeometry>
        </mxCell>
        <mxCell id="Rllp9C1GU7QNVUocK1dj-65" value="alq" style="shape=rhombus;double=1;perimeter=rhombusPerimeter;whiteSpace=wrap;html=1;align=center;" vertex="1" parent="1">
          <mxGeometry x="1015" y="430" width="70" height="30" as="geometry" />
        </mxCell>
        <mxCell id="Rllp9C1GU7QNVUocK1dj-66" value="" style="endArrow=none;html=1;rounded=0;entryX=0.5;entryY=1;entryDx=0;entryDy=0;exitX=0.5;exitY=0;exitDx=0;exitDy=0;" edge="1" parent="1" source="Rllp9C1GU7QNVUocK1dj-65" target="Rllp9C1GU7QNVUocK1dj-5">
          <mxGeometry relative="1" as="geometry">
            <mxPoint x="760" y="410" as="sourcePoint" />
            <mxPoint x="920" y="410" as="targetPoint" />
          </mxGeometry>
        </mxCell>
        <mxCell id="Rllp9C1GU7QNVUocK1dj-67" value="(1,1)" style="resizable=0;html=1;whiteSpace=wrap;align=right;verticalAlign=bottom;" connectable="0" vertex="1" parent="Rllp9C1GU7QNVUocK1dj-66">
          <mxGeometry x="1" relative="1" as="geometry">
            <mxPoint y="20" as="offset" />
          </mxGeometry>
        </mxCell>
        <mxCell id="Rllp9C1GU7QNVUocK1dj-69" value="" style="endArrow=none;html=1;rounded=0;entryX=0.5;entryY=0;entryDx=0;entryDy=0;exitX=0.5;exitY=1;exitDx=0;exitDy=0;" edge="1" parent="1" source="Rllp9C1GU7QNVUocK1dj-65" target="Rllp9C1GU7QNVUocK1dj-8">
          <mxGeometry relative="1" as="geometry">
            <mxPoint x="930" y="490" as="sourcePoint" />
            <mxPoint x="1090" y="490" as="targetPoint" />
          </mxGeometry>
        </mxCell>
        <mxCell id="Rllp9C1GU7QNVUocK1dj-70" value="(0,M)" style="resizable=0;html=1;whiteSpace=wrap;align=right;verticalAlign=bottom;" connectable="0" vertex="1" parent="Rllp9C1GU7QNVUocK1dj-69">
          <mxGeometry x="1" relative="1" as="geometry" />
        </mxCell>
        <mxCell id="Rllp9C1GU7QNVUocK1dj-71" value="&lt;h1 style=&quot;margin-top: 0px;&quot;&gt;&lt;span style=&quot;background-color: transparent; color: light-dark(rgb(0, 0, 0), rgb(255, 255, 255));&quot;&gt;Restriccion&lt;/span&gt;&lt;/h1&gt;&lt;h1 style=&quot;margin-top: 0px;&quot;&gt;&lt;span style=&quot;font-size: 12px; font-weight: 400;&quot;&gt;La restricciÃ³n de que un socio no pueda alquilar mÃ¡s de una copia del mismo libro a la vez no puede representarse directamente en el MER, ya que requiere lÃ³gica adicional en la implementaciÃ³n.&lt;/span&gt;&lt;/h1&gt;" style="text;html=1;whiteSpace=wrap;overflow=hidden;rounded=0;" vertex="1" parent="1">
          <mxGeometry x="1190" y="180" width="300" height="170" as="geometry" />
        </mxCell>
      </root>
    </mxGraphModel>
  </diagram>
</mxfile>
